<mxfile host="app.diagrams.net" modified="2023-12-09T20:28:42.241Z" agent="Mozilla/5.0 (Windows NT 10.0; Win64; x64) AppleWebKit/537.36 (KHTML, like Gecko) Chrome/116.0.5845.686 YaBrowser/23.9.5.686 Yowser/2.5 Safari/537.36" etag="JFXjcUvE8DiUB1ekEwL6" version="22.1.7" type="device">
  <diagram id="onA2VM0ke9PM5qHIyAdz" name="Страница — 1">
    <mxGraphModel dx="5659" dy="886" grid="1" gridSize="10" guides="1" tooltips="1" connect="1" arrows="1" fold="1" page="1" pageScale="1" pageWidth="827" pageHeight="1169" math="0" shadow="0">
      <root>
        <mxCell id="0" />
        <mxCell id="1" parent="0" />
        <mxCell id="1lmrmKGu_N5sYzmFphA3-1" value="" style="rounded=0;whiteSpace=wrap;html=1;" parent="1" vertex="1">
          <mxGeometry x="-1527.37" y="653.5" width="463.48" height="260" as="geometry" />
        </mxCell>
        <mxCell id="1lmrmKGu_N5sYzmFphA3-2" value="Стартотвая страница" style="text;html=1;strokeColor=none;fillColor=none;align=center;verticalAlign=middle;whiteSpace=wrap;rounded=0;" parent="1" vertex="1">
          <mxGeometry x="-1385.63" y="923.5" width="180" height="30" as="geometry" />
        </mxCell>
        <mxCell id="1lmrmKGu_N5sYzmFphA3-3" value="Переход к поиску" style="rounded=1;whiteSpace=wrap;html=1;perimeterSpacing=0;" parent="1" vertex="1">
          <mxGeometry x="-1457.37" y="793.5" width="140" height="50" as="geometry" />
        </mxCell>
        <mxCell id="1lmrmKGu_N5sYzmFphA3-4" value="Вход в систему" style="rounded=1;whiteSpace=wrap;html=1;perimeterSpacing=0;" parent="1" vertex="1">
          <mxGeometry x="-1279.37" y="793.5" width="151" height="50" as="geometry" />
        </mxCell>
        <mxCell id="1lmrmKGu_N5sYzmFphA3-5" value="v" style="rounded=0;whiteSpace=wrap;html=1;" parent="1" vertex="1">
          <mxGeometry x="-1437.5" y="1337" width="465" height="260" as="geometry" />
        </mxCell>
        <mxCell id="1lmrmKGu_N5sYzmFphA3-6" value="Поиск (без входа в систему)" style="text;html=1;strokeColor=none;fillColor=none;align=center;verticalAlign=middle;whiteSpace=wrap;rounded=0;" parent="1" vertex="1">
          <mxGeometry x="-1295" y="1607" width="180" height="30" as="geometry" />
        </mxCell>
        <mxCell id="1lmrmKGu_N5sYzmFphA3-7" value="Фильтры поиска" style="rounded=0;whiteSpace=wrap;html=1;" parent="1" vertex="1">
          <mxGeometry x="-1432.5" y="1407" width="95" height="185" as="geometry" />
        </mxCell>
        <mxCell id="1lmrmKGu_N5sYzmFphA3-10" value="" style="rounded=0;whiteSpace=wrap;html=1;" parent="1" vertex="1">
          <mxGeometry x="-1333.5" y="1407" width="355" height="80" as="geometry" />
        </mxCell>
        <mxCell id="1lmrmKGu_N5sYzmFphA3-11" value="Имя пользователя" style="text;html=1;strokeColor=none;fillColor=none;align=center;verticalAlign=middle;whiteSpace=wrap;rounded=0;" parent="1" vertex="1">
          <mxGeometry x="-1327.5" y="1403" width="110" height="30" as="geometry" />
        </mxCell>
        <mxCell id="1lmrmKGu_N5sYzmFphA3-14" value="&lt;font style=&quot;font-size: 10px;&quot;&gt;Полное инфо&lt;/font&gt;" style="rounded=1;whiteSpace=wrap;html=1;" parent="1" vertex="1">
          <mxGeometry x="-1322.5" y="1456.5" width="66" height="21" as="geometry" />
        </mxCell>
        <mxCell id="1lmrmKGu_N5sYzmFphA3-15" value="Аккаунт хабра/почта" style="text;html=1;strokeColor=none;fillColor=none;align=left;verticalAlign=middle;whiteSpace=wrap;rounded=0;" parent="1" vertex="1">
          <mxGeometry x="-1324.5" y="1417" width="127" height="30" as="geometry" />
        </mxCell>
        <mxCell id="1lmrmKGu_N5sYzmFphA3-16" value="&lt;font style=&quot;font-size: 10px;&quot;&gt;Вход в систему&lt;/font&gt;" style="rounded=1;whiteSpace=wrap;html=1;" parent="1" vertex="1">
          <mxGeometry x="-1057.5" y="1345" width="78" height="21" as="geometry" />
        </mxCell>
        <mxCell id="1lmrmKGu_N5sYzmFphA3-18" value="Поиск (с входом в систему)" style="text;html=1;strokeColor=none;fillColor=none;align=center;verticalAlign=middle;whiteSpace=wrap;rounded=0;" parent="1" vertex="1">
          <mxGeometry x="-2485" y="1059" width="180" height="30" as="geometry" />
        </mxCell>
        <mxCell id="1lmrmKGu_N5sYzmFphA3-26" value="v" style="rounded=0;whiteSpace=wrap;html=1;" parent="1" vertex="1">
          <mxGeometry x="-2627.5" y="789" width="465" height="260" as="geometry" />
        </mxCell>
        <mxCell id="1lmrmKGu_N5sYzmFphA3-27" value="Фильтры поиска" style="rounded=0;whiteSpace=wrap;html=1;" parent="1" vertex="1">
          <mxGeometry x="-2622.5" y="859" width="95" height="185" as="geometry" />
        </mxCell>
        <mxCell id="1lmrmKGu_N5sYzmFphA3-35" value="" style="rounded=0;whiteSpace=wrap;html=1;" parent="1" vertex="1">
          <mxGeometry x="-2524.5" y="859" width="355" height="80" as="geometry" />
        </mxCell>
        <mxCell id="1lmrmKGu_N5sYzmFphA3-29" value="Имя пользователя" style="text;html=1;strokeColor=none;fillColor=none;align=center;verticalAlign=middle;whiteSpace=wrap;rounded=0;" parent="1" vertex="1">
          <mxGeometry x="-2517.5" y="855" width="110" height="30" as="geometry" />
        </mxCell>
        <mxCell id="1lmrmKGu_N5sYzmFphA3-30" value="&lt;font style=&quot;font-size: 10px;&quot;&gt;Полное инфо&lt;/font&gt;" style="rounded=1;whiteSpace=wrap;html=1;" parent="1" vertex="1">
          <mxGeometry x="-2517.5" y="908" width="66" height="21" as="geometry" />
        </mxCell>
        <mxCell id="1lmrmKGu_N5sYzmFphA3-31" value="&lt;font style=&quot;font-size: 11px;&quot;&gt;Аккаунт хабра/почта&lt;/font&gt;" style="text;html=1;strokeColor=none;fillColor=none;align=left;verticalAlign=middle;whiteSpace=wrap;rounded=0;" parent="1" vertex="1">
          <mxGeometry x="-2514.5" y="869" width="110" height="30" as="geometry" />
        </mxCell>
        <mxCell id="1lmrmKGu_N5sYzmFphA3-32" value="&lt;font style=&quot;font-size: 10px;&quot;&gt;Просмотр аккаунта&lt;/font&gt;" style="rounded=1;whiteSpace=wrap;html=1;" parent="1" vertex="1">
          <mxGeometry x="-2227.5" y="797" width="58" height="32" as="geometry" />
        </mxCell>
        <mxCell id="1lmrmKGu_N5sYzmFphA3-25" value="&lt;font style=&quot;font-size: 10px;&quot;&gt;Написать сообщение&lt;/font&gt;" style="rounded=1;whiteSpace=wrap;html=1;" parent="1" vertex="1">
          <mxGeometry x="-2446.5" y="908" width="103" height="21" as="geometry" />
        </mxCell>
        <mxCell id="1lmrmKGu_N5sYzmFphA3-34" value="&lt;font style=&quot;font-size: 10px;&quot;&gt;Сохранить&lt;/font&gt;" style="rounded=1;whiteSpace=wrap;html=1;" parent="1" vertex="1">
          <mxGeometry x="-2338" y="908.5" width="58" height="21" as="geometry" />
        </mxCell>
        <mxCell id="1lmrmKGu_N5sYzmFphA3-36" style="edgeStyle=orthogonalEdgeStyle;rounded=0;orthogonalLoop=1;jettySize=auto;html=1;exitX=0.5;exitY=1;exitDx=0;exitDy=0;" parent="1" source="1lmrmKGu_N5sYzmFphA3-25" target="1lmrmKGu_N5sYzmFphA3-25" edge="1">
          <mxGeometry relative="1" as="geometry" />
        </mxCell>
        <mxCell id="1lmrmKGu_N5sYzmFphA3-38" value="&lt;font style=&quot;font-size: 10px;&quot;&gt;Уведомления&lt;/font&gt;" style="rounded=1;whiteSpace=wrap;html=1;" parent="1" vertex="1">
          <mxGeometry x="-2297.5" y="797" width="68" height="32" as="geometry" />
        </mxCell>
        <mxCell id="1lmrmKGu_N5sYzmFphA3-39" value="&lt;span style=&quot;font-size: 10px;&quot;&gt;Диалоги&lt;/span&gt;" style="rounded=1;whiteSpace=wrap;html=1;" parent="1" vertex="1">
          <mxGeometry x="-2396.5" y="797" width="46" height="32" as="geometry" />
        </mxCell>
        <mxCell id="1lmrmKGu_N5sYzmFphA3-40" value="&lt;span style=&quot;font-size: 10px;&quot;&gt;Поиск&lt;/span&gt;" style="rounded=1;whiteSpace=wrap;html=1;" parent="1" vertex="1">
          <mxGeometry x="-2346.5" y="797" width="46" height="32" as="geometry" />
        </mxCell>
        <mxCell id="1lmrmKGu_N5sYzmFphA3-41" value="Диалоги" style="text;html=1;strokeColor=none;fillColor=none;align=center;verticalAlign=middle;whiteSpace=wrap;rounded=0;" parent="1" vertex="1">
          <mxGeometry x="-3609.25" y="462" width="180" height="30" as="geometry" />
        </mxCell>
        <mxCell id="1lmrmKGu_N5sYzmFphA3-42" value="v" style="rounded=0;whiteSpace=wrap;html=1;" parent="1" vertex="1">
          <mxGeometry x="-3751.75" y="192" width="465" height="260" as="geometry" />
        </mxCell>
        <mxCell id="1lmrmKGu_N5sYzmFphA3-43" value="Список диалогов с пользователями" style="rounded=0;whiteSpace=wrap;html=1;" parent="1" vertex="1">
          <mxGeometry x="-3746.75" y="262" width="95" height="185" as="geometry" />
        </mxCell>
        <mxCell id="1lmrmKGu_N5sYzmFphA3-44" value="" style="rounded=0;whiteSpace=wrap;html=1;" parent="1" vertex="1">
          <mxGeometry x="-3648.75" y="262" width="355" height="185" as="geometry" />
        </mxCell>
        <mxCell id="1lmrmKGu_N5sYzmFphA3-45" value="Имя пользователя-получателя, почта" style="text;html=1;strokeColor=default;fillColor=none;align=center;verticalAlign=middle;whiteSpace=wrap;rounded=0;" parent="1" vertex="1">
          <mxGeometry x="-3641.25" y="272" width="340" height="30" as="geometry" />
        </mxCell>
        <mxCell id="1lmrmKGu_N5sYzmFphA3-48" value="&lt;font style=&quot;font-size: 10px;&quot;&gt;Просмотр аккаунта&lt;/font&gt;" style="rounded=1;whiteSpace=wrap;html=1;" parent="1" vertex="1">
          <mxGeometry x="-3351.75" y="200" width="58" height="32" as="geometry" />
        </mxCell>
        <mxCell id="1lmrmKGu_N5sYzmFphA3-52" style="edgeStyle=orthogonalEdgeStyle;rounded=0;orthogonalLoop=1;jettySize=auto;html=1;exitX=0.5;exitY=1;exitDx=0;exitDy=0;" parent="1" edge="1">
          <mxGeometry relative="1" as="geometry">
            <mxPoint x="-3519.25" y="332" as="sourcePoint" />
            <mxPoint x="-3519.25" y="332" as="targetPoint" />
          </mxGeometry>
        </mxCell>
        <mxCell id="1lmrmKGu_N5sYzmFphA3-53" value="&lt;font style=&quot;font-size: 10px;&quot;&gt;Уведомления&lt;/font&gt;" style="rounded=1;whiteSpace=wrap;html=1;" parent="1" vertex="1">
          <mxGeometry x="-3421.75" y="200" width="68" height="32" as="geometry" />
        </mxCell>
        <mxCell id="1lmrmKGu_N5sYzmFphA3-54" value="&lt;span style=&quot;font-size: 10px;&quot;&gt;Диалоги&lt;/span&gt;" style="rounded=1;whiteSpace=wrap;html=1;" parent="1" vertex="1">
          <mxGeometry x="-3520.75" y="200" width="46" height="32" as="geometry" />
        </mxCell>
        <mxCell id="1lmrmKGu_N5sYzmFphA3-55" value="&lt;span style=&quot;font-size: 10px;&quot;&gt;Поиск&lt;/span&gt;" style="rounded=1;whiteSpace=wrap;html=1;" parent="1" vertex="1">
          <mxGeometry x="-3470.75" y="200" width="46" height="32" as="geometry" />
        </mxCell>
        <mxCell id="1lmrmKGu_N5sYzmFphA3-56" value="Диалог" style="text;html=1;strokeColor=default;fillColor=none;align=center;verticalAlign=middle;whiteSpace=wrap;rounded=0;" parent="1" vertex="1">
          <mxGeometry x="-3641.25" y="307" width="340" height="95" as="geometry" />
        </mxCell>
        <mxCell id="1lmrmKGu_N5sYzmFphA3-57" value="Поле для ввода и отправки сообщения" style="text;html=1;strokeColor=default;fillColor=none;align=center;verticalAlign=middle;whiteSpace=wrap;rounded=0;" parent="1" vertex="1">
          <mxGeometry x="-3640.75" y="410" width="340" height="30" as="geometry" />
        </mxCell>
        <mxCell id="1lmrmKGu_N5sYzmFphA3-58" value="Просмотр уведомлений" style="text;html=1;strokeColor=none;fillColor=none;align=center;verticalAlign=middle;whiteSpace=wrap;rounded=0;" parent="1" vertex="1">
          <mxGeometry x="-2555.75" y="463" width="180" height="30" as="geometry" />
        </mxCell>
        <mxCell id="1lmrmKGu_N5sYzmFphA3-59" value="" style="rounded=0;whiteSpace=wrap;html=1;" parent="1" vertex="1">
          <mxGeometry x="-2698.25" y="193" width="465" height="260" as="geometry" />
        </mxCell>
        <mxCell id="1lmrmKGu_N5sYzmFphA3-63" value="&lt;font style=&quot;font-size: 10px;&quot;&gt;Просмотр аккаунта&lt;/font&gt;" style="rounded=1;whiteSpace=wrap;html=1;" parent="1" vertex="1">
          <mxGeometry x="-2298.25" y="201" width="58" height="32" as="geometry" />
        </mxCell>
        <mxCell id="1lmrmKGu_N5sYzmFphA3-64" style="edgeStyle=orthogonalEdgeStyle;rounded=0;orthogonalLoop=1;jettySize=auto;html=1;exitX=0.5;exitY=1;exitDx=0;exitDy=0;" parent="1" edge="1">
          <mxGeometry relative="1" as="geometry">
            <mxPoint x="-2465.75" y="333" as="sourcePoint" />
            <mxPoint x="-2465.75" y="333" as="targetPoint" />
          </mxGeometry>
        </mxCell>
        <mxCell id="1lmrmKGu_N5sYzmFphA3-65" value="&lt;font style=&quot;font-size: 10px;&quot;&gt;Уведомления&lt;/font&gt;" style="rounded=1;whiteSpace=wrap;html=1;" parent="1" vertex="1">
          <mxGeometry x="-2368.25" y="201" width="68" height="32" as="geometry" />
        </mxCell>
        <mxCell id="1lmrmKGu_N5sYzmFphA3-66" value="&lt;span style=&quot;font-size: 10px;&quot;&gt;Диалоги&lt;/span&gt;" style="rounded=1;whiteSpace=wrap;html=1;" parent="1" vertex="1">
          <mxGeometry x="-2467.25" y="201" width="46" height="32" as="geometry" />
        </mxCell>
        <mxCell id="1lmrmKGu_N5sYzmFphA3-67" value="&lt;span style=&quot;font-size: 10px;&quot;&gt;Поиск&lt;/span&gt;" style="rounded=1;whiteSpace=wrap;html=1;" parent="1" vertex="1">
          <mxGeometry x="-2417.25" y="201" width="46" height="32" as="geometry" />
        </mxCell>
        <mxCell id="1lmrmKGu_N5sYzmFphA3-70" value="Список уведомлений" style="rounded=0;whiteSpace=wrap;html=1;" parent="1" vertex="1">
          <mxGeometry x="-2468.25" y="243" width="168" height="170" as="geometry" />
        </mxCell>
        <mxCell id="1lmrmKGu_N5sYzmFphA3-71" value="Уведомление о полученном сообщении" style="rounded=0;whiteSpace=wrap;html=1;" parent="1" vertex="1">
          <mxGeometry x="-2463.25" y="253" width="158" height="40" as="geometry" />
        </mxCell>
        <mxCell id="1lmrmKGu_N5sYzmFphA3-72" value="Отправка сообщений" style="text;html=1;strokeColor=none;fillColor=none;align=center;verticalAlign=middle;whiteSpace=wrap;rounded=0;" parent="1" vertex="1">
          <mxGeometry x="-3574" y="1033.5" width="180" height="30" as="geometry" />
        </mxCell>
        <mxCell id="1lmrmKGu_N5sYzmFphA3-73" value="" style="rounded=0;whiteSpace=wrap;html=1;" parent="1" vertex="1">
          <mxGeometry x="-3716.5" y="763.5" width="465" height="260" as="geometry" />
        </mxCell>
        <mxCell id="1lmrmKGu_N5sYzmFphA3-74" value="&lt;font style=&quot;font-size: 10px;&quot;&gt;Просмотр аккаунта&lt;/font&gt;" style="rounded=1;whiteSpace=wrap;html=1;" parent="1" vertex="1">
          <mxGeometry x="-3316.5" y="771.5" width="58" height="32" as="geometry" />
        </mxCell>
        <mxCell id="1lmrmKGu_N5sYzmFphA3-75" style="edgeStyle=orthogonalEdgeStyle;rounded=0;orthogonalLoop=1;jettySize=auto;html=1;exitX=0.5;exitY=1;exitDx=0;exitDy=0;" parent="1" edge="1">
          <mxGeometry relative="1" as="geometry">
            <mxPoint x="-3484" y="903.5" as="sourcePoint" />
            <mxPoint x="-3484" y="903.5" as="targetPoint" />
          </mxGeometry>
        </mxCell>
        <mxCell id="1lmrmKGu_N5sYzmFphA3-76" value="&lt;font style=&quot;font-size: 10px;&quot;&gt;Уведомления&lt;/font&gt;" style="rounded=1;whiteSpace=wrap;html=1;" parent="1" vertex="1">
          <mxGeometry x="-3386.5" y="771.5" width="68" height="32" as="geometry" />
        </mxCell>
        <mxCell id="1lmrmKGu_N5sYzmFphA3-77" value="&lt;span style=&quot;font-size: 10px;&quot;&gt;Диалоги&lt;/span&gt;" style="rounded=1;whiteSpace=wrap;html=1;" parent="1" vertex="1">
          <mxGeometry x="-3485.5" y="771.5" width="46" height="32" as="geometry" />
        </mxCell>
        <mxCell id="1lmrmKGu_N5sYzmFphA3-78" value="&lt;span style=&quot;font-size: 10px;&quot;&gt;Поиск&lt;/span&gt;" style="rounded=1;whiteSpace=wrap;html=1;" parent="1" vertex="1">
          <mxGeometry x="-3435.5" y="771.5" width="46" height="32" as="geometry" />
        </mxCell>
        <mxCell id="1lmrmKGu_N5sYzmFphA3-79" value="" style="rounded=0;whiteSpace=wrap;html=1;" parent="1" vertex="1">
          <mxGeometry x="-3643.5" y="813.5" width="309" height="200" as="geometry" />
        </mxCell>
        <mxCell id="1lmrmKGu_N5sYzmFphA3-81" value="Информация о получателе (имя, почта)" style="rounded=0;whiteSpace=wrap;html=1;" parent="1" vertex="1">
          <mxGeometry x="-3637.5" y="823.5" width="297" height="40" as="geometry" />
        </mxCell>
        <mxCell id="1lmrmKGu_N5sYzmFphA3-82" value="Текст сообщения" style="rounded=0;whiteSpace=wrap;html=1;" parent="1" vertex="1">
          <mxGeometry x="-3637.5" y="873.5" width="297" height="90" as="geometry" />
        </mxCell>
        <mxCell id="1lmrmKGu_N5sYzmFphA3-83" value="&lt;font style=&quot;font-size: 10px;&quot;&gt;Отправка&lt;/font&gt;" style="rounded=1;whiteSpace=wrap;html=1;" parent="1" vertex="1">
          <mxGeometry x="-3637.5" y="973.5" width="68" height="32" as="geometry" />
        </mxCell>
        <mxCell id="1lmrmKGu_N5sYzmFphA3-84" value="Просмотр информации о пользователе (с входом)" style="text;html=1;strokeColor=none;fillColor=none;align=center;verticalAlign=middle;whiteSpace=wrap;rounded=0;" parent="1" vertex="1">
          <mxGeometry x="-3601.75" y="1646" width="180" height="30" as="geometry" />
        </mxCell>
        <mxCell id="1lmrmKGu_N5sYzmFphA3-85" value="" style="rounded=0;whiteSpace=wrap;html=1;" parent="1" vertex="1">
          <mxGeometry x="-3744.25" y="1376" width="465" height="260" as="geometry" />
        </mxCell>
        <mxCell id="1lmrmKGu_N5sYzmFphA3-86" value="&lt;font style=&quot;font-size: 10px;&quot;&gt;Просмотр аккаунта&lt;/font&gt;" style="rounded=1;whiteSpace=wrap;html=1;" parent="1" vertex="1">
          <mxGeometry x="-3344.25" y="1384" width="58" height="32" as="geometry" />
        </mxCell>
        <mxCell id="1lmrmKGu_N5sYzmFphA3-87" style="edgeStyle=orthogonalEdgeStyle;rounded=0;orthogonalLoop=1;jettySize=auto;html=1;exitX=0.5;exitY=1;exitDx=0;exitDy=0;" parent="1" edge="1">
          <mxGeometry relative="1" as="geometry">
            <mxPoint x="-3511.75" y="1516" as="sourcePoint" />
            <mxPoint x="-3511.75" y="1516" as="targetPoint" />
          </mxGeometry>
        </mxCell>
        <mxCell id="1lmrmKGu_N5sYzmFphA3-88" value="&lt;font style=&quot;font-size: 10px;&quot;&gt;Уведомления&lt;/font&gt;" style="rounded=1;whiteSpace=wrap;html=1;" parent="1" vertex="1">
          <mxGeometry x="-3414.25" y="1384" width="68" height="32" as="geometry" />
        </mxCell>
        <mxCell id="1lmrmKGu_N5sYzmFphA3-89" value="&lt;span style=&quot;font-size: 10px;&quot;&gt;Диалоги&lt;/span&gt;" style="rounded=1;whiteSpace=wrap;html=1;" parent="1" vertex="1">
          <mxGeometry x="-3513.25" y="1384" width="46" height="32" as="geometry" />
        </mxCell>
        <mxCell id="1lmrmKGu_N5sYzmFphA3-90" value="&lt;span style=&quot;font-size: 10px;&quot;&gt;Поиск&lt;/span&gt;" style="rounded=1;whiteSpace=wrap;html=1;" parent="1" vertex="1">
          <mxGeometry x="-3463.25" y="1384" width="46" height="32" as="geometry" />
        </mxCell>
        <mxCell id="1lmrmKGu_N5sYzmFphA3-91" value="" style="rounded=0;whiteSpace=wrap;html=1;" parent="1" vertex="1">
          <mxGeometry x="-3671.25" y="1426" width="309" height="200" as="geometry" />
        </mxCell>
        <mxCell id="1lmrmKGu_N5sYzmFphA3-92" value="Краткая информация о пользователе: аватар, имя, почта и логин хабра (если есть)" style="rounded=0;whiteSpace=wrap;html=1;" parent="1" vertex="1">
          <mxGeometry x="-3665.25" y="1436" width="297" height="60" as="geometry" />
        </mxCell>
        <mxCell id="1lmrmKGu_N5sYzmFphA3-93" value="Полная информация: место жительства, специализация, возраст, заработная плата, рейтинг и карма хабра (если есть)" style="rounded=0;whiteSpace=wrap;html=1;" parent="1" vertex="1">
          <mxGeometry x="-3665.25" y="1496" width="297" height="122" as="geometry" />
        </mxCell>
        <mxCell id="1lmrmKGu_N5sYzmFphA3-106" value="Просмотр информации о пользователе (без входа)" style="text;html=1;strokeColor=none;fillColor=none;align=center;verticalAlign=middle;whiteSpace=wrap;rounded=0;" parent="1" vertex="1">
          <mxGeometry x="-1420.5" y="2213.5" width="180" height="30" as="geometry" />
        </mxCell>
        <mxCell id="1lmrmKGu_N5sYzmFphA3-107" value="" style="rounded=0;whiteSpace=wrap;html=1;" parent="1" vertex="1">
          <mxGeometry x="-1563" y="1943.5" width="465" height="260" as="geometry" />
        </mxCell>
        <mxCell id="1lmrmKGu_N5sYzmFphA3-108" value="&lt;font style=&quot;font-size: 10px;&quot;&gt;Вход в систему&lt;/font&gt;" style="rounded=1;whiteSpace=wrap;html=1;" parent="1" vertex="1">
          <mxGeometry x="-1183" y="1951.5" width="78" height="22" as="geometry" />
        </mxCell>
        <mxCell id="1lmrmKGu_N5sYzmFphA3-109" style="edgeStyle=orthogonalEdgeStyle;rounded=0;orthogonalLoop=1;jettySize=auto;html=1;exitX=0.5;exitY=1;exitDx=0;exitDy=0;" parent="1" edge="1">
          <mxGeometry relative="1" as="geometry">
            <mxPoint x="-1330.5" y="2083.5" as="sourcePoint" />
            <mxPoint x="-1330.5" y="2083.5" as="targetPoint" />
          </mxGeometry>
        </mxCell>
        <mxCell id="1lmrmKGu_N5sYzmFphA3-113" value="" style="rounded=0;whiteSpace=wrap;html=1;" parent="1" vertex="1">
          <mxGeometry x="-1490" y="1993.5" width="309" height="200" as="geometry" />
        </mxCell>
        <mxCell id="1lmrmKGu_N5sYzmFphA3-114" value="Краткая информация о пользователе: аватар, имя, почта и логин хабра (если есть)" style="rounded=0;whiteSpace=wrap;html=1;" parent="1" vertex="1">
          <mxGeometry x="-1484" y="2003.5" width="297" height="60" as="geometry" />
        </mxCell>
        <mxCell id="1lmrmKGu_N5sYzmFphA3-115" value="Полная информация: место жительства, специализация, возраст, заработная плата, рейтинг и карма хабра (если есть)" style="rounded=0;whiteSpace=wrap;html=1;" parent="1" vertex="1">
          <mxGeometry x="-1484" y="2063.5" width="297" height="122" as="geometry" />
        </mxCell>
        <mxCell id="1lmrmKGu_N5sYzmFphA3-116" value="Просмотр своего аккаунта" style="text;html=1;strokeColor=none;fillColor=none;align=center;verticalAlign=middle;whiteSpace=wrap;rounded=0;" parent="1" vertex="1">
          <mxGeometry x="-2478.5" y="1633" width="180" height="30" as="geometry" />
        </mxCell>
        <mxCell id="1lmrmKGu_N5sYzmFphA3-117" value="" style="rounded=0;whiteSpace=wrap;html=1;" parent="1" vertex="1">
          <mxGeometry x="-2621" y="1363" width="465" height="260" as="geometry" />
        </mxCell>
        <mxCell id="1lmrmKGu_N5sYzmFphA3-119" style="edgeStyle=orthogonalEdgeStyle;rounded=0;orthogonalLoop=1;jettySize=auto;html=1;exitX=0.5;exitY=1;exitDx=0;exitDy=0;" parent="1" edge="1">
          <mxGeometry relative="1" as="geometry">
            <mxPoint x="-2388.5" y="1503" as="sourcePoint" />
            <mxPoint x="-2388.5" y="1503" as="targetPoint" />
          </mxGeometry>
        </mxCell>
        <mxCell id="1lmrmKGu_N5sYzmFphA3-120" value="&lt;font style=&quot;font-size: 10px;&quot;&gt;Уведомления&lt;/font&gt;" style="rounded=1;whiteSpace=wrap;html=1;" parent="1" vertex="1">
          <mxGeometry x="-2231" y="1371" width="68" height="32" as="geometry" />
        </mxCell>
        <mxCell id="1lmrmKGu_N5sYzmFphA3-121" value="&lt;span style=&quot;font-size: 10px;&quot;&gt;Диалоги&lt;/span&gt;" style="rounded=1;whiteSpace=wrap;html=1;" parent="1" vertex="1">
          <mxGeometry x="-2330" y="1371" width="46" height="32" as="geometry" />
        </mxCell>
        <mxCell id="1lmrmKGu_N5sYzmFphA3-122" value="&lt;span style=&quot;font-size: 10px;&quot;&gt;Поиск&lt;/span&gt;" style="rounded=1;whiteSpace=wrap;html=1;" parent="1" vertex="1">
          <mxGeometry x="-2280" y="1371" width="46" height="32" as="geometry" />
        </mxCell>
        <mxCell id="1lmrmKGu_N5sYzmFphA3-123" value="" style="rounded=0;whiteSpace=wrap;html=1;" parent="1" vertex="1">
          <mxGeometry x="-2548" y="1413" width="309" height="200" as="geometry" />
        </mxCell>
        <mxCell id="1lmrmKGu_N5sYzmFphA3-124" value="Краткая информация о своем аккаунте: аватар, имя, почта, логин хабра (если привязан)" style="rounded=0;whiteSpace=wrap;html=1;" parent="1" vertex="1">
          <mxGeometry x="-2542" y="1423" width="297" height="60" as="geometry" />
        </mxCell>
        <mxCell id="1lmrmKGu_N5sYzmFphA3-125" value="Полная информация: место жительства, специализация, возраст, заработная плата, рейтинг и карма хабра (если привязан аккаунт хабра)" style="rounded=0;whiteSpace=wrap;html=1;" parent="1" vertex="1">
          <mxGeometry x="-2542" y="1483" width="297" height="86" as="geometry" />
        </mxCell>
        <mxCell id="1lmrmKGu_N5sYzmFphA3-126" value="&lt;font style=&quot;font-size: 10px;&quot;&gt;Редактирование данных&lt;/font&gt;" style="rounded=1;whiteSpace=wrap;html=1;" parent="1" vertex="1">
          <mxGeometry x="-2536.5" y="1573" width="90.5" height="32" as="geometry" />
        </mxCell>
        <mxCell id="1lmrmKGu_N5sYzmFphA3-127" value="Редактирование своего аккаунта" style="text;html=1;strokeColor=none;fillColor=none;align=center;verticalAlign=middle;whiteSpace=wrap;rounded=0;" parent="1" vertex="1">
          <mxGeometry x="-2487.75" y="2205" width="180" height="30" as="geometry" />
        </mxCell>
        <mxCell id="1lmrmKGu_N5sYzmFphA3-128" value="" style="rounded=0;whiteSpace=wrap;html=1;" parent="1" vertex="1">
          <mxGeometry x="-2630.25" y="1935" width="465" height="260" as="geometry" />
        </mxCell>
        <mxCell id="1lmrmKGu_N5sYzmFphA3-130" style="edgeStyle=orthogonalEdgeStyle;rounded=0;orthogonalLoop=1;jettySize=auto;html=1;exitX=0.5;exitY=1;exitDx=0;exitDy=0;" parent="1" edge="1">
          <mxGeometry relative="1" as="geometry">
            <mxPoint x="-2397.75" y="2075" as="sourcePoint" />
            <mxPoint x="-2397.75" y="2075" as="targetPoint" />
          </mxGeometry>
        </mxCell>
        <mxCell id="1lmrmKGu_N5sYzmFphA3-131" value="&lt;font style=&quot;font-size: 10px;&quot;&gt;Уведомления&lt;/font&gt;" style="rounded=1;whiteSpace=wrap;html=1;" parent="1" vertex="1">
          <mxGeometry x="-2240.25" y="1943" width="68" height="32" as="geometry" />
        </mxCell>
        <mxCell id="1lmrmKGu_N5sYzmFphA3-132" value="&lt;span style=&quot;font-size: 10px;&quot;&gt;Диалоги&lt;/span&gt;" style="rounded=1;whiteSpace=wrap;html=1;" parent="1" vertex="1">
          <mxGeometry x="-2339.25" y="1943" width="46" height="32" as="geometry" />
        </mxCell>
        <mxCell id="1lmrmKGu_N5sYzmFphA3-133" value="&lt;span style=&quot;font-size: 10px;&quot;&gt;Поиск&lt;/span&gt;" style="rounded=1;whiteSpace=wrap;html=1;" parent="1" vertex="1">
          <mxGeometry x="-2289.25" y="1943" width="46" height="32" as="geometry" />
        </mxCell>
        <mxCell id="1lmrmKGu_N5sYzmFphA3-134" value="" style="rounded=0;whiteSpace=wrap;html=1;" parent="1" vertex="1">
          <mxGeometry x="-2557.25" y="1985" width="309" height="200" as="geometry" />
        </mxCell>
        <mxCell id="1lmrmKGu_N5sYzmFphA3-135" value="Поля с краткой информацией о своем аккаунте: аватар, имя, почта, логин хабра (привязка или перепривязка аккаунта хабра)" style="rounded=0;whiteSpace=wrap;html=1;" parent="1" vertex="1">
          <mxGeometry x="-2551.25" y="1995" width="297" height="60" as="geometry" />
        </mxCell>
        <mxCell id="1lmrmKGu_N5sYzmFphA3-136" value="Поля с полной информацией: место жительства, специализация, возраст, заработная плата" style="rounded=0;whiteSpace=wrap;html=1;" parent="1" vertex="1">
          <mxGeometry x="-2551.25" y="2055" width="297" height="86" as="geometry" />
        </mxCell>
        <mxCell id="1lmrmKGu_N5sYzmFphA3-137" value="&lt;font style=&quot;font-size: 10px;&quot;&gt;Сохранение данных&lt;/font&gt;" style="rounded=1;whiteSpace=wrap;html=1;" parent="1" vertex="1">
          <mxGeometry x="-2545.75" y="2145" width="90.5" height="32" as="geometry" />
        </mxCell>
        <mxCell id="1lmrmKGu_N5sYzmFphA3-138" value="&lt;span style=&quot;font-size: 10px;&quot;&gt;Поиск&lt;/span&gt;" style="rounded=1;whiteSpace=wrap;html=1;" parent="1" vertex="1">
          <mxGeometry x="-1117.5" y="1345" width="48" height="21" as="geometry" />
        </mxCell>
        <mxCell id="1lmrmKGu_N5sYzmFphA3-139" value="v" style="rounded=0;whiteSpace=wrap;html=1;" parent="1" vertex="1">
          <mxGeometry x="-400" y="1095.5" width="465" height="260" as="geometry" />
        </mxCell>
        <mxCell id="1lmrmKGu_N5sYzmFphA3-140" value="Вход в систему" style="text;html=1;strokeColor=none;fillColor=none;align=center;verticalAlign=middle;whiteSpace=wrap;rounded=0;" parent="1" vertex="1">
          <mxGeometry x="-170" y="1365.5" width="92.5" height="30" as="geometry" />
        </mxCell>
        <mxCell id="1lmrmKGu_N5sYzmFphA3-142" value="Данные для входа" style="rounded=0;whiteSpace=wrap;html=1;" parent="1" vertex="1">
          <mxGeometry x="-282.5" y="1165.5" width="220" height="130" as="geometry" />
        </mxCell>
        <mxCell id="1lmrmKGu_N5sYzmFphA3-144" value="&lt;font style=&quot;font-size: 10px;&quot;&gt;Вход&lt;/font&gt;" style="rounded=1;whiteSpace=wrap;html=1;" parent="1" vertex="1">
          <mxGeometry x="-279" y="1255.5" width="52.5" height="30" as="geometry" />
        </mxCell>
        <mxCell id="1lmrmKGu_N5sYzmFphA3-147" value="&lt;span style=&quot;font-size: 10px;&quot;&gt;Поиск&lt;/span&gt;" style="rounded=1;whiteSpace=wrap;html=1;" parent="1" vertex="1">
          <mxGeometry x="10" y="1103.5" width="48" height="21" as="geometry" />
        </mxCell>
        <mxCell id="1lmrmKGu_N5sYzmFphA3-148" value="&lt;font style=&quot;font-size: 10px;&quot;&gt;Регистрация&lt;/font&gt;" style="rounded=1;whiteSpace=wrap;html=1;" parent="1" vertex="1">
          <mxGeometry x="-131.5" y="1255.5" width="66" height="30" as="geometry" />
        </mxCell>
        <mxCell id="1lmrmKGu_N5sYzmFphA3-149" value="&lt;font style=&quot;font-size: 10px;&quot;&gt;Восстановление пароля&lt;/font&gt;" style="rounded=1;whiteSpace=wrap;html=1;" parent="1" vertex="1">
          <mxGeometry x="-216.5" y="1255.5" width="80" height="30" as="geometry" />
        </mxCell>
        <mxCell id="1lmrmKGu_N5sYzmFphA3-150" value="v" style="rounded=0;whiteSpace=wrap;html=1;" parent="1" vertex="1">
          <mxGeometry x="-400" y="675.5" width="465" height="260" as="geometry" />
        </mxCell>
        <mxCell id="1lmrmKGu_N5sYzmFphA3-151" value="Восстановление пароля" style="text;html=1;strokeColor=none;fillColor=none;align=center;verticalAlign=middle;whiteSpace=wrap;rounded=0;" parent="1" vertex="1">
          <mxGeometry x="-266.5" y="935.5" width="180" height="30" as="geometry" />
        </mxCell>
        <mxCell id="1lmrmKGu_N5sYzmFphA3-152" value="Логин для сброса пароля" style="rounded=0;whiteSpace=wrap;html=1;" parent="1" vertex="1">
          <mxGeometry x="-282.5" y="745.5" width="220" height="130" as="geometry" />
        </mxCell>
        <mxCell id="1lmrmKGu_N5sYzmFphA3-154" value="&lt;font style=&quot;font-size: 10px;&quot;&gt;Вход в систему&lt;/font&gt;" style="rounded=1;whiteSpace=wrap;html=1;" parent="1" vertex="1">
          <mxGeometry x="-20" y="683.5" width="78" height="21" as="geometry" />
        </mxCell>
        <mxCell id="1lmrmKGu_N5sYzmFphA3-155" value="&lt;span style=&quot;font-size: 10px;&quot;&gt;Поиск&lt;/span&gt;" style="rounded=1;whiteSpace=wrap;html=1;" parent="1" vertex="1">
          <mxGeometry x="-80" y="683.5" width="48" height="21" as="geometry" />
        </mxCell>
        <mxCell id="1lmrmKGu_N5sYzmFphA3-157" value="&lt;font style=&quot;font-size: 10px;&quot;&gt;Сбросить пароль&lt;/font&gt;" style="rounded=1;whiteSpace=wrap;html=1;" parent="1" vertex="1">
          <mxGeometry x="-216.5" y="835.5" width="80" height="30" as="geometry" />
        </mxCell>
        <mxCell id="1lmrmKGu_N5sYzmFphA3-158" value="Регистрация" style="text;html=1;strokeColor=none;fillColor=none;align=center;verticalAlign=middle;whiteSpace=wrap;rounded=0;" parent="1" vertex="1">
          <mxGeometry x="-271" y="1775.5" width="180" height="30" as="geometry" />
        </mxCell>
        <mxCell id="1lmrmKGu_N5sYzmFphA3-159" value="" style="rounded=0;whiteSpace=wrap;html=1;" parent="1" vertex="1">
          <mxGeometry x="-400" y="1505.5" width="465" height="260" as="geometry" />
        </mxCell>
        <mxCell id="1lmrmKGu_N5sYzmFphA3-160" value="&lt;font style=&quot;font-size: 10px;&quot;&gt;Вход в систему&lt;/font&gt;" style="rounded=1;whiteSpace=wrap;html=1;" parent="1" vertex="1">
          <mxGeometry x="-39" y="1513.5" width="78" height="22" as="geometry" />
        </mxCell>
        <mxCell id="1lmrmKGu_N5sYzmFphA3-161" style="edgeStyle=orthogonalEdgeStyle;rounded=0;orthogonalLoop=1;jettySize=auto;html=1;exitX=0.5;exitY=1;exitDx=0;exitDy=0;" parent="1" edge="1">
          <mxGeometry relative="1" as="geometry">
            <mxPoint x="-186.5" y="1645.5" as="sourcePoint" />
            <mxPoint x="-186.5" y="1645.5" as="targetPoint" />
          </mxGeometry>
        </mxCell>
        <mxCell id="1lmrmKGu_N5sYzmFphA3-164" value="&lt;span style=&quot;font-size: 10px;&quot;&gt;Поиск&lt;/span&gt;" style="rounded=1;whiteSpace=wrap;html=1;" parent="1" vertex="1">
          <mxGeometry x="-96.5" y="1513.5" width="46" height="22" as="geometry" />
        </mxCell>
        <mxCell id="1lmrmKGu_N5sYzmFphA3-165" value="" style="rounded=0;whiteSpace=wrap;html=1;" parent="1" vertex="1">
          <mxGeometry x="-346" y="1555.5" width="309" height="200" as="geometry" />
        </mxCell>
        <mxCell id="1lmrmKGu_N5sYzmFphA3-166" value="Поля для основной информации: имя, почта, пароль. Привязка хабр аккаунта (необязательно)" style="rounded=0;whiteSpace=wrap;html=1;" parent="1" vertex="1">
          <mxGeometry x="-340" y="1565.5" width="297" height="60" as="geometry" />
        </mxCell>
        <mxCell id="1lmrmKGu_N5sYzmFphA3-167" value="Поля с полной информацией: место жительства, специализация, возраст, заработная плата" style="rounded=0;whiteSpace=wrap;html=1;" parent="1" vertex="1">
          <mxGeometry x="-340" y="1625.5" width="297" height="86" as="geometry" />
        </mxCell>
        <mxCell id="1lmrmKGu_N5sYzmFphA3-168" value="&lt;font style=&quot;font-size: 10px;&quot;&gt;Завершить регистрацию&lt;/font&gt;" style="rounded=1;whiteSpace=wrap;html=1;" parent="1" vertex="1">
          <mxGeometry x="-334.5" y="1715.5" width="90.5" height="32" as="geometry" />
        </mxCell>
        <mxCell id="1lmrmKGu_N5sYzmFphA3-169" value="" style="ellipse;fillColor=strokeColor;html=1;" parent="1" vertex="1">
          <mxGeometry x="-1310.63" y="553.5" width="30" height="30" as="geometry" />
        </mxCell>
        <mxCell id="1lmrmKGu_N5sYzmFphA3-170" value="" style="endArrow=classic;html=1;rounded=0;exitX=0.5;exitY=1;exitDx=0;exitDy=0;entryX=0.5;entryY=0;entryDx=0;entryDy=0;" parent="1" source="1lmrmKGu_N5sYzmFphA3-169" target="1lmrmKGu_N5sYzmFphA3-1" edge="1">
          <mxGeometry width="50" height="50" relative="1" as="geometry">
            <mxPoint x="-1877.37" y="1113.5" as="sourcePoint" />
            <mxPoint x="-1827.37" y="1063.5" as="targetPoint" />
          </mxGeometry>
        </mxCell>
        <mxCell id="1lmrmKGu_N5sYzmFphA3-171" value="" style="endArrow=classic;html=1;rounded=0;exitX=0.25;exitY=1;exitDx=0;exitDy=0;" parent="1" source="1lmrmKGu_N5sYzmFphA3-1" edge="1">
          <mxGeometry width="50" height="50" relative="1" as="geometry">
            <mxPoint x="-1365.37" y="1255.5" as="sourcePoint" />
            <mxPoint x="-1411.37" y="995.5" as="targetPoint" />
          </mxGeometry>
        </mxCell>
        <mxCell id="1lmrmKGu_N5sYzmFphA3-173" value="" style="endArrow=classic;html=1;rounded=0;entryX=1;entryY=0.75;entryDx=0;entryDy=0;" parent="1" edge="1">
          <mxGeometry width="50" height="50" relative="1" as="geometry">
            <mxPoint x="-1527.37" y="793" as="sourcePoint" />
            <mxPoint x="-1694.87" y="793" as="targetPoint" />
          </mxGeometry>
        </mxCell>
        <mxCell id="1lmrmKGu_N5sYzmFphA3-174" value="Переход к поиску (с входом в систему)" style="text;html=1;strokeColor=none;fillColor=none;align=center;verticalAlign=middle;whiteSpace=wrap;rounded=0;" parent="1" vertex="1">
          <mxGeometry x="-1847.87" y="779.5" width="120" height="30" as="geometry" />
        </mxCell>
        <mxCell id="1lmrmKGu_N5sYzmFphA3-175" value="" style="endArrow=classic;html=1;rounded=0;exitX=1;exitY=0.5;exitDx=0;exitDy=0;" parent="1" source="1lmrmKGu_N5sYzmFphA3-1" target="1lmrmKGu_N5sYzmFphA3-576" edge="1">
          <mxGeometry width="50" height="50" relative="1" as="geometry">
            <mxPoint x="-845.37" y="1165.5" as="sourcePoint" />
            <mxPoint x="-1015.37" y="745.5" as="targetPoint" />
          </mxGeometry>
        </mxCell>
        <mxCell id="1lmrmKGu_N5sYzmFphA3-177" value="" style="endArrow=classic;html=1;rounded=0;exitX=1;exitY=0.25;exitDx=0;exitDy=0;edgeStyle=orthogonalEdgeStyle;" parent="1" source="1lmrmKGu_N5sYzmFphA3-5" edge="1">
          <mxGeometry width="50" height="50" relative="1" as="geometry">
            <mxPoint x="-770" y="1280.57" as="sourcePoint" />
            <mxPoint x="-840" y="1402" as="targetPoint" />
          </mxGeometry>
        </mxCell>
        <mxCell id="1lmrmKGu_N5sYzmFphA3-178" value="Нажата кнопка &quot;Вход в систему&quot;" style="text;html=1;strokeColor=none;fillColor=none;align=center;verticalAlign=middle;whiteSpace=wrap;rounded=0;" parent="1" vertex="1">
          <mxGeometry x="-960" y="1366" width="112" height="30" as="geometry" />
        </mxCell>
        <mxCell id="1lmrmKGu_N5sYzmFphA3-179" value="" style="endArrow=classic;html=1;rounded=0;exitX=0.25;exitY=0;exitDx=0;exitDy=0;entryX=0.25;entryY=1;entryDx=0;entryDy=0;" parent="1" source="1lmrmKGu_N5sYzmFphA3-139" target="1lmrmKGu_N5sYzmFphA3-150" edge="1">
          <mxGeometry width="50" height="50" relative="1" as="geometry">
            <mxPoint x="-626" y="825.5" as="sourcePoint" />
            <mxPoint x="-459" y="825.5" as="targetPoint" />
          </mxGeometry>
        </mxCell>
        <mxCell id="1lmrmKGu_N5sYzmFphA3-180" value="Нажата кнопка &quot;Восстановление пароля&quot;" style="text;html=1;strokeColor=none;fillColor=none;align=center;verticalAlign=middle;whiteSpace=wrap;rounded=0;" parent="1" vertex="1">
          <mxGeometry x="-394.5" y="1051.5" width="112" height="30" as="geometry" />
        </mxCell>
        <mxCell id="1lmrmKGu_N5sYzmFphA3-181" value="" style="endArrow=classic;html=1;rounded=0;exitX=1;exitY=0.25;exitDx=0;exitDy=0;entryX=0;entryY=0.25;entryDx=0;entryDy=0;edgeStyle=orthogonalEdgeStyle;" parent="1" source="1lmrmKGu_N5sYzmFphA3-150" target="1lmrmKGu_N5sYzmFphA3-182" edge="1">
          <mxGeometry width="50" height="50" relative="1" as="geometry">
            <mxPoint x="110" y="1152.5" as="sourcePoint" />
            <mxPoint x="110" y="1016.5" as="targetPoint" />
          </mxGeometry>
        </mxCell>
        <mxCell id="1lmrmKGu_N5sYzmFphA3-182" value="v" style="rounded=0;whiteSpace=wrap;html=1;" parent="1" vertex="1">
          <mxGeometry x="410" y="675.5" width="465" height="260" as="geometry" />
        </mxCell>
        <mxCell id="1lmrmKGu_N5sYzmFphA3-183" value="Ввод нового пароля" style="text;html=1;strokeColor=none;fillColor=none;align=center;verticalAlign=middle;whiteSpace=wrap;rounded=0;" parent="1" vertex="1">
          <mxGeometry x="552.5" y="945.5" width="180" height="30" as="geometry" />
        </mxCell>
        <mxCell id="1lmrmKGu_N5sYzmFphA3-184" value="Ввод нового пароль и его повторение" style="rounded=0;whiteSpace=wrap;html=1;" parent="1" vertex="1">
          <mxGeometry x="527.5" y="745.5" width="220" height="130" as="geometry" />
        </mxCell>
        <mxCell id="1lmrmKGu_N5sYzmFphA3-185" value="&lt;font style=&quot;font-size: 10px;&quot;&gt;Вход в систему&lt;/font&gt;" style="rounded=1;whiteSpace=wrap;html=1;" parent="1" vertex="1">
          <mxGeometry x="790" y="683.5" width="78" height="21" as="geometry" />
        </mxCell>
        <mxCell id="1lmrmKGu_N5sYzmFphA3-186" value="&lt;span style=&quot;font-size: 10px;&quot;&gt;Поиск&lt;/span&gt;" style="rounded=1;whiteSpace=wrap;html=1;" parent="1" vertex="1">
          <mxGeometry x="730" y="683.5" width="48" height="21" as="geometry" />
        </mxCell>
        <mxCell id="1lmrmKGu_N5sYzmFphA3-187" value="&lt;span style=&quot;font-size: 10px;&quot;&gt;Смена пароля&lt;/span&gt;" style="rounded=1;whiteSpace=wrap;html=1;" parent="1" vertex="1">
          <mxGeometry x="593.5" y="835.5" width="80" height="30" as="geometry" />
        </mxCell>
        <mxCell id="1lmrmKGu_N5sYzmFphA3-188" value="Нажата кнопка &quot;Сбросить пароль&quot;" style="text;html=1;strokeColor=none;fillColor=none;align=center;verticalAlign=middle;whiteSpace=wrap;rounded=0;" parent="1" vertex="1">
          <mxGeometry x="65" y="711.5" width="112" height="30" as="geometry" />
        </mxCell>
        <mxCell id="1lmrmKGu_N5sYzmFphA3-189" value="" style="endArrow=classic;html=1;rounded=0;exitX=0.25;exitY=1;exitDx=0;exitDy=0;entryX=1;entryY=0.25;entryDx=0;entryDy=0;edgeStyle=orthogonalEdgeStyle;" parent="1" source="1lmrmKGu_N5sYzmFphA3-182" target="1lmrmKGu_N5sYzmFphA3-139" edge="1">
          <mxGeometry width="50" height="50" relative="1" as="geometry">
            <mxPoint x="-53.5" y="904.63" as="sourcePoint" />
            <mxPoint x="101.5" y="904.63" as="targetPoint" />
          </mxGeometry>
        </mxCell>
        <mxCell id="1lmrmKGu_N5sYzmFphA3-191" value="Нажата кнопка &quot;Смена пароля&quot;&lt;br&gt;(при условии совпадении паролей)" style="text;html=1;strokeColor=none;fillColor=none;align=center;verticalAlign=middle;whiteSpace=wrap;rounded=0;" parent="1" vertex="1">
          <mxGeometry x="110" y="1125.5" width="192" height="30" as="geometry" />
        </mxCell>
        <mxCell id="1lmrmKGu_N5sYzmFphA3-192" value="" style="endArrow=classic;html=1;rounded=0;exitX=0.25;exitY=1;exitDx=0;exitDy=0;entryX=0.25;entryY=0;entryDx=0;entryDy=0;" parent="1" source="1lmrmKGu_N5sYzmFphA3-139" target="1lmrmKGu_N5sYzmFphA3-159" edge="1">
          <mxGeometry width="50" height="50" relative="1" as="geometry">
            <mxPoint x="-27" y="1678.5" as="sourcePoint" />
            <mxPoint x="-27" y="1542.5" as="targetPoint" />
          </mxGeometry>
        </mxCell>
        <mxCell id="1lmrmKGu_N5sYzmFphA3-193" value="Нажата кнопка &quot;Регистрация&quot;" style="text;html=1;strokeColor=none;fillColor=none;align=center;verticalAlign=middle;whiteSpace=wrap;rounded=0;" parent="1" vertex="1">
          <mxGeometry x="-383" y="1368.5" width="112" height="30" as="geometry" />
        </mxCell>
        <mxCell id="1lmrmKGu_N5sYzmFphA3-194" value="" style="endArrow=classic;html=1;rounded=0;exitX=0.25;exitY=1;exitDx=0;exitDy=0;edgeStyle=orthogonalEdgeStyle;" parent="1" source="1lmrmKGu_N5sYzmFphA3-159" edge="1">
          <mxGeometry width="50" height="50" relative="1" as="geometry">
            <mxPoint x="-310" y="1788.5" as="sourcePoint" />
            <mxPoint x="-284" y="1845.5" as="targetPoint" />
          </mxGeometry>
        </mxCell>
        <mxCell id="1lmrmKGu_N5sYzmFphA3-195" value="Нажата &quot;Завершить регистрацию&quot;" style="text;html=1;strokeColor=none;fillColor=none;align=center;verticalAlign=middle;whiteSpace=wrap;rounded=0;" parent="1" vertex="1">
          <mxGeometry x="-391" y="1785.5" width="112" height="30" as="geometry" />
        </mxCell>
        <mxCell id="1lmrmKGu_N5sYzmFphA3-196" value="" style="endArrow=classic;html=1;rounded=0;exitX=0.75;exitY=1;exitDx=0;exitDy=0;" parent="1" source="1lmrmKGu_N5sYzmFphA3-117" edge="1">
          <mxGeometry width="50" height="50" relative="1" as="geometry">
            <mxPoint x="-2001" y="1505" as="sourcePoint" />
            <mxPoint x="-2272" y="1733" as="targetPoint" />
          </mxGeometry>
        </mxCell>
        <mxCell id="1lmrmKGu_N5sYzmFphA3-197" value="Нажата кнопка &quot;Редактирование аккаунта&quot;" style="text;html=1;strokeColor=none;fillColor=none;align=center;verticalAlign=middle;whiteSpace=wrap;rounded=0;" parent="1" vertex="1">
          <mxGeometry x="-2275" y="1653" width="112" height="30" as="geometry" />
        </mxCell>
        <mxCell id="1lmrmKGu_N5sYzmFphA3-198" value="" style="endArrow=classic;html=1;rounded=0;exitX=0;exitY=0.25;exitDx=0;exitDy=0;edgeStyle=orthogonalEdgeStyle;" parent="1" source="1lmrmKGu_N5sYzmFphA3-128" edge="1">
          <mxGeometry width="50" height="50" relative="1" as="geometry">
            <mxPoint x="-2700.25" y="1675" as="sourcePoint" />
            <mxPoint x="-2680.25" y="1855" as="targetPoint" />
            <Array as="points">
              <mxPoint x="-2680.25" y="2000" />
            </Array>
          </mxGeometry>
        </mxCell>
        <mxCell id="1lmrmKGu_N5sYzmFphA3-199" value="&lt;font style=&quot;font-size: 10px;&quot;&gt;Сброс изменений&lt;/font&gt;" style="rounded=1;whiteSpace=wrap;html=1;" parent="1" vertex="1">
          <mxGeometry x="-2448.75" y="2145" width="90.5" height="32" as="geometry" />
        </mxCell>
        <mxCell id="1lmrmKGu_N5sYzmFphA3-200" value="Сброс/сохранение данных" style="text;html=1;strokeColor=none;fillColor=none;align=center;verticalAlign=middle;whiteSpace=wrap;rounded=0;" parent="1" vertex="1">
          <mxGeometry x="-2790.25" y="1913" width="112" height="30" as="geometry" />
        </mxCell>
        <mxCell id="1lmrmKGu_N5sYzmFphA3-202" value="" style="endArrow=classic;html=1;rounded=0;exitX=1;exitY=0.25;exitDx=0;exitDy=0;" parent="1" source="1lmrmKGu_N5sYzmFphA3-159" target="1lmrmKGu_N5sYzmFphA3-203" edge="1">
          <mxGeometry width="50" height="50" relative="1" as="geometry">
            <mxPoint x="130" y="1605.5" as="sourcePoint" />
            <mxPoint x="170" y="1570.5" as="targetPoint" />
          </mxGeometry>
        </mxCell>
        <mxCell id="1lmrmKGu_N5sYzmFphA3-203" value="" style="ellipse;html=1;" parent="1" vertex="1">
          <mxGeometry x="155" y="1555.5" width="30" height="30" as="geometry" />
        </mxCell>
        <mxCell id="1lmrmKGu_N5sYzmFphA3-204" value="Нажата кнопка &quot;Вход в систему&quot;" style="text;html=1;strokeColor=none;fillColor=none;align=center;verticalAlign=middle;whiteSpace=wrap;rounded=0;" parent="1" vertex="1">
          <mxGeometry x="80" y="1727.5" width="112" height="30" as="geometry" />
        </mxCell>
        <mxCell id="1lmrmKGu_N5sYzmFphA3-205" value="" style="endArrow=classic;html=1;rounded=0;exitX=1;exitY=0.75;exitDx=0;exitDy=0;" parent="1" source="1lmrmKGu_N5sYzmFphA3-159" target="1lmrmKGu_N5sYzmFphA3-206" edge="1">
          <mxGeometry width="50" height="50" relative="1" as="geometry">
            <mxPoint x="146" y="1674" as="sourcePoint" />
            <mxPoint x="251" y="1674" as="targetPoint" />
          </mxGeometry>
        </mxCell>
        <mxCell id="1lmrmKGu_N5sYzmFphA3-206" value="" style="ellipse;html=1;" parent="1" vertex="1">
          <mxGeometry x="155" y="1685.5" width="30" height="30" as="geometry" />
        </mxCell>
        <mxCell id="1lmrmKGu_N5sYzmFphA3-207" value="Нажата кнопка &quot;Поиск&quot;" style="text;html=1;strokeColor=none;fillColor=none;align=center;verticalAlign=middle;whiteSpace=wrap;rounded=0;" parent="1" vertex="1">
          <mxGeometry x="73" y="1522" width="112" height="30" as="geometry" />
        </mxCell>
        <mxCell id="1lmrmKGu_N5sYzmFphA3-208" value="Поиск (без входа в систему)" style="text;html=1;strokeColor=none;fillColor=none;align=center;verticalAlign=middle;whiteSpace=wrap;rounded=0;" parent="1" vertex="1">
          <mxGeometry x="192" y="1555.5" width="170" height="30" as="geometry" />
        </mxCell>
        <mxCell id="1lmrmKGu_N5sYzmFphA3-209" value="Вход в систему" style="text;html=1;strokeColor=none;fillColor=none;align=center;verticalAlign=middle;whiteSpace=wrap;rounded=0;" parent="1" vertex="1">
          <mxGeometry x="185" y="1685.5" width="105" height="30" as="geometry" />
        </mxCell>
        <mxCell id="1lmrmKGu_N5sYzmFphA3-210" value="" style="endArrow=classic;html=1;rounded=0;exitX=1;exitY=0.25;exitDx=0;exitDy=0;" parent="1" target="1lmrmKGu_N5sYzmFphA3-211" edge="1">
          <mxGeometry width="50" height="50" relative="1" as="geometry">
            <mxPoint x="65" y="1304" as="sourcePoint" />
            <mxPoint x="170" y="1304" as="targetPoint" />
          </mxGeometry>
        </mxCell>
        <mxCell id="1lmrmKGu_N5sYzmFphA3-211" value="" style="ellipse;html=1;" parent="1" vertex="1">
          <mxGeometry x="155" y="1289" width="30" height="30" as="geometry" />
        </mxCell>
        <mxCell id="1lmrmKGu_N5sYzmFphA3-215" value="Нажата кнопка &quot;Поиск&quot;" style="text;html=1;strokeColor=none;fillColor=none;align=center;verticalAlign=middle;whiteSpace=wrap;rounded=0;" parent="1" vertex="1">
          <mxGeometry x="73" y="1255.5" width="112" height="30" as="geometry" />
        </mxCell>
        <mxCell id="1lmrmKGu_N5sYzmFphA3-216" value="Поиск (без входа в систему)" style="text;html=1;strokeColor=none;fillColor=none;align=center;verticalAlign=middle;whiteSpace=wrap;rounded=0;" parent="1" vertex="1">
          <mxGeometry x="192" y="1289" width="170" height="30" as="geometry" />
        </mxCell>
        <mxCell id="1lmrmKGu_N5sYzmFphA3-222" value="" style="endArrow=classic;html=1;rounded=0;exitX=0;exitY=0.25;exitDx=0;exitDy=0;" parent="1" source="1lmrmKGu_N5sYzmFphA3-150" target="1lmrmKGu_N5sYzmFphA3-223" edge="1">
          <mxGeometry width="50" height="50" relative="1" as="geometry">
            <mxPoint x="-759.5" y="701.25" as="sourcePoint" />
            <mxPoint x="-654.5" y="701.25" as="targetPoint" />
          </mxGeometry>
        </mxCell>
        <mxCell id="1lmrmKGu_N5sYzmFphA3-223" value="" style="ellipse;html=1;" parent="1" vertex="1">
          <mxGeometry x="-550" y="725.5" width="30" height="30" as="geometry" />
        </mxCell>
        <mxCell id="1lmrmKGu_N5sYzmFphA3-224" value="Нажата кнопка &quot;Вход в систему&quot;" style="text;html=1;strokeColor=none;fillColor=none;align=center;verticalAlign=middle;whiteSpace=wrap;rounded=0;" parent="1" vertex="1">
          <mxGeometry x="-512" y="875.5" width="112" height="30" as="geometry" />
        </mxCell>
        <mxCell id="1lmrmKGu_N5sYzmFphA3-225" value="" style="endArrow=classic;html=1;rounded=0;exitX=0;exitY=0.75;exitDx=0;exitDy=0;" parent="1" source="1lmrmKGu_N5sYzmFphA3-150" target="1lmrmKGu_N5sYzmFphA3-226" edge="1">
          <mxGeometry width="50" height="50" relative="1" as="geometry">
            <mxPoint x="-759.5" y="831.25" as="sourcePoint" />
            <mxPoint x="-573.5" y="804.75" as="targetPoint" />
          </mxGeometry>
        </mxCell>
        <mxCell id="1lmrmKGu_N5sYzmFphA3-226" value="" style="ellipse;html=1;" parent="1" vertex="1">
          <mxGeometry x="-550" y="855.5" width="30" height="30" as="geometry" />
        </mxCell>
        <mxCell id="1lmrmKGu_N5sYzmFphA3-227" value="Нажата кнопка &quot;Поиск&quot;" style="text;html=1;strokeColor=none;fillColor=none;align=center;verticalAlign=middle;whiteSpace=wrap;rounded=0;" parent="1" vertex="1">
          <mxGeometry x="-512" y="705.5" width="112" height="30" as="geometry" />
        </mxCell>
        <mxCell id="1lmrmKGu_N5sYzmFphA3-228" value="Поиск (без входа в систему)" style="text;html=1;strokeColor=none;fillColor=none;align=center;verticalAlign=middle;whiteSpace=wrap;rounded=0;" parent="1" vertex="1">
          <mxGeometry x="-720" y="725.5" width="170" height="30" as="geometry" />
        </mxCell>
        <mxCell id="1lmrmKGu_N5sYzmFphA3-229" value="Вход в систему" style="text;html=1;strokeColor=none;fillColor=none;align=center;verticalAlign=middle;whiteSpace=wrap;rounded=0;" parent="1" vertex="1">
          <mxGeometry x="-655" y="855.5" width="105" height="30" as="geometry" />
        </mxCell>
        <mxCell id="1lmrmKGu_N5sYzmFphA3-230" value="" style="endArrow=classic;html=1;rounded=0;exitX=1;exitY=0.25;exitDx=0;exitDy=0;" parent="1" target="1lmrmKGu_N5sYzmFphA3-231" edge="1">
          <mxGeometry width="50" height="50" relative="1" as="geometry">
            <mxPoint x="875" y="748.5" as="sourcePoint" />
            <mxPoint x="980" y="748.5" as="targetPoint" />
          </mxGeometry>
        </mxCell>
        <mxCell id="1lmrmKGu_N5sYzmFphA3-231" value="" style="ellipse;html=1;" parent="1" vertex="1">
          <mxGeometry x="965" y="733.5" width="30" height="30" as="geometry" />
        </mxCell>
        <mxCell id="1lmrmKGu_N5sYzmFphA3-232" value="Нажата кнопка &quot;Вход в систему&quot;" style="text;html=1;strokeColor=none;fillColor=none;align=center;verticalAlign=middle;whiteSpace=wrap;rounded=0;" parent="1" vertex="1">
          <mxGeometry x="890" y="905.5" width="112" height="30" as="geometry" />
        </mxCell>
        <mxCell id="1lmrmKGu_N5sYzmFphA3-233" value="" style="endArrow=classic;html=1;rounded=0;exitX=1;exitY=0.75;exitDx=0;exitDy=0;" parent="1" target="1lmrmKGu_N5sYzmFphA3-234" edge="1">
          <mxGeometry width="50" height="50" relative="1" as="geometry">
            <mxPoint x="875" y="878.5" as="sourcePoint" />
            <mxPoint x="1061" y="852" as="targetPoint" />
          </mxGeometry>
        </mxCell>
        <mxCell id="1lmrmKGu_N5sYzmFphA3-234" value="" style="ellipse;html=1;" parent="1" vertex="1">
          <mxGeometry x="965" y="863.5" width="30" height="30" as="geometry" />
        </mxCell>
        <mxCell id="1lmrmKGu_N5sYzmFphA3-235" value="Нажата кнопка &quot;Поиск&quot;" style="text;html=1;strokeColor=none;fillColor=none;align=center;verticalAlign=middle;whiteSpace=wrap;rounded=0;" parent="1" vertex="1">
          <mxGeometry x="883" y="700" width="112" height="30" as="geometry" />
        </mxCell>
        <mxCell id="1lmrmKGu_N5sYzmFphA3-236" value="Поиск (без входа в систему)" style="text;html=1;strokeColor=none;fillColor=none;align=center;verticalAlign=middle;whiteSpace=wrap;rounded=0;" parent="1" vertex="1">
          <mxGeometry x="995" y="733.5" width="170" height="30" as="geometry" />
        </mxCell>
        <mxCell id="1lmrmKGu_N5sYzmFphA3-237" value="Вход в систему" style="text;html=1;strokeColor=none;fillColor=none;align=center;verticalAlign=middle;whiteSpace=wrap;rounded=0;" parent="1" vertex="1">
          <mxGeometry x="995" y="863.5" width="105" height="30" as="geometry" />
        </mxCell>
        <mxCell id="1lmrmKGu_N5sYzmFphA3-238" value="" style="ellipse;html=1;" parent="1" vertex="1">
          <mxGeometry x="4" y="1434.5" width="30" height="30" as="geometry" />
        </mxCell>
        <mxCell id="1lmrmKGu_N5sYzmFphA3-240" value="Вход в систему" style="text;html=1;strokeColor=none;fillColor=none;align=center;verticalAlign=middle;whiteSpace=wrap;rounded=0;" parent="1" vertex="1">
          <mxGeometry x="34" y="1434.5" width="105" height="30" as="geometry" />
        </mxCell>
        <mxCell id="1lmrmKGu_N5sYzmFphA3-241" value="" style="endArrow=classic;html=1;rounded=0;entryX=0.9;entryY=1.002;entryDx=0;entryDy=0;entryPerimeter=0;" parent="1" source="1lmrmKGu_N5sYzmFphA3-238" target="1lmrmKGu_N5sYzmFphA3-139" edge="1">
          <mxGeometry width="50" height="50" relative="1" as="geometry">
            <mxPoint x="75" y="1314" as="sourcePoint" />
            <mxPoint x="165" y="1314.5" as="targetPoint" />
          </mxGeometry>
        </mxCell>
        <mxCell id="1lmrmKGu_N5sYzmFphA3-242" value="Нажата кнопка &quot;Вход в систему&quot;" style="text;html=1;strokeColor=none;fillColor=none;align=center;verticalAlign=middle;whiteSpace=wrap;rounded=0;" parent="1" vertex="1">
          <mxGeometry x="20" y="1385.5" width="112" height="30" as="geometry" />
        </mxCell>
        <mxCell id="1lmrmKGu_N5sYzmFphA3-243" value="" style="ellipse;html=1;" parent="1" vertex="1">
          <mxGeometry x="-1054.5" y="1675" width="30" height="30" as="geometry" />
        </mxCell>
        <mxCell id="1lmrmKGu_N5sYzmFphA3-244" value="Поиск (без входа в систему)" style="text;html=1;strokeColor=none;fillColor=none;align=center;verticalAlign=middle;whiteSpace=wrap;rounded=0;" parent="1" vertex="1">
          <mxGeometry x="-1024.5" y="1675" width="105" height="30" as="geometry" />
        </mxCell>
        <mxCell id="1lmrmKGu_N5sYzmFphA3-245" value="" style="endArrow=classic;html=1;rounded=0;entryX=0.9;entryY=1.002;entryDx=0;entryDy=0;entryPerimeter=0;" parent="1" source="1lmrmKGu_N5sYzmFphA3-243" edge="1">
          <mxGeometry width="50" height="50" relative="1" as="geometry">
            <mxPoint x="-983.5" y="1554.5" as="sourcePoint" />
            <mxPoint x="-1040.5" y="1597" as="targetPoint" />
          </mxGeometry>
        </mxCell>
        <mxCell id="1lmrmKGu_N5sYzmFphA3-246" value="Нажата кнопка &quot;Поиск&quot;" style="text;html=1;strokeColor=none;fillColor=none;align=center;verticalAlign=middle;whiteSpace=wrap;rounded=0;" parent="1" vertex="1">
          <mxGeometry x="-1038.5" y="1626" width="112" height="30" as="geometry" />
        </mxCell>
        <mxCell id="1lmrmKGu_N5sYzmFphA3-248" value="" style="endArrow=classic;html=1;rounded=0;exitX=0.25;exitY=1;exitDx=0;exitDy=0;" parent="1" source="1lmrmKGu_N5sYzmFphA3-5" edge="1">
          <mxGeometry width="50" height="50" relative="1" as="geometry">
            <mxPoint x="-1797.5" y="1824" as="sourcePoint" />
            <mxPoint x="-1321.5" y="1694" as="targetPoint" />
            <Array as="points" />
          </mxGeometry>
        </mxCell>
        <mxCell id="1lmrmKGu_N5sYzmFphA3-249" value="Нажата кнопка &quot;Полное инфо&quot;" style="text;html=1;strokeColor=none;fillColor=none;align=center;verticalAlign=middle;whiteSpace=wrap;rounded=0;" parent="1" vertex="1">
          <mxGeometry x="-1455.5" y="1892.5" width="112" height="30" as="geometry" />
        </mxCell>
        <mxCell id="1lmrmKGu_N5sYzmFphA3-250" value="" style="endArrow=classic;html=1;rounded=0;entryX=0;entryY=0.75;entryDx=0;entryDy=0;edgeStyle=orthogonalEdgeStyle;" parent="1" source="1lmrmKGu_N5sYzmFphA3-589" target="1lmrmKGu_N5sYzmFphA3-5" edge="1">
          <mxGeometry width="50" height="50" relative="1" as="geometry">
            <mxPoint x="-1687.5" y="1614" as="sourcePoint" />
            <mxPoint x="-1074.5" y="2221" as="targetPoint" />
          </mxGeometry>
        </mxCell>
        <mxCell id="1lmrmKGu_N5sYzmFphA3-251" value="Нажата область вне окна информации" style="text;html=1;strokeColor=none;fillColor=none;align=center;verticalAlign=middle;whiteSpace=wrap;rounded=0;" parent="1" vertex="1">
          <mxGeometry x="-1559" y="1487" width="112" height="30" as="geometry" />
        </mxCell>
        <mxCell id="1lmrmKGu_N5sYzmFphA3-252" value="Нажата кнопка &quot;Вход в систему&quot;" style="text;html=1;strokeColor=none;fillColor=none;align=center;verticalAlign=middle;whiteSpace=wrap;rounded=0;" parent="1" vertex="1">
          <mxGeometry x="-1082" y="2173.5" width="112" height="30" as="geometry" />
        </mxCell>
        <mxCell id="1lmrmKGu_N5sYzmFphA3-253" value="" style="endArrow=classic;html=1;rounded=0;exitX=1;exitY=0.75;exitDx=0;exitDy=0;" parent="1" target="1lmrmKGu_N5sYzmFphA3-254" edge="1">
          <mxGeometry width="50" height="50" relative="1" as="geometry">
            <mxPoint x="-1097" y="2146.5" as="sourcePoint" />
            <mxPoint x="-911" y="2120" as="targetPoint" />
          </mxGeometry>
        </mxCell>
        <mxCell id="1lmrmKGu_N5sYzmFphA3-254" value="" style="ellipse;html=1;" parent="1" vertex="1">
          <mxGeometry x="-1007" y="2131.5" width="30" height="30" as="geometry" />
        </mxCell>
        <mxCell id="1lmrmKGu_N5sYzmFphA3-255" value="Вход в систему" style="text;html=1;strokeColor=none;fillColor=none;align=center;verticalAlign=middle;whiteSpace=wrap;rounded=0;" parent="1" vertex="1">
          <mxGeometry x="-977" y="2131.5" width="105" height="30" as="geometry" />
        </mxCell>
        <mxCell id="1lmrmKGu_N5sYzmFphA3-259" value="Нажата область вне окна информации" style="text;html=1;strokeColor=none;fillColor=none;align=center;verticalAlign=middle;whiteSpace=wrap;rounded=0;" parent="1" vertex="1">
          <mxGeometry x="-3398.5" y="1346" width="128" height="30" as="geometry" />
        </mxCell>
        <mxCell id="1lmrmKGu_N5sYzmFphA3-261" value="" style="endArrow=classic;html=1;rounded=0;exitX=0;exitY=0.25;exitDx=0;exitDy=0;" parent="1" target="1lmrmKGu_N5sYzmFphA3-262" edge="1">
          <mxGeometry width="50" height="50" relative="1" as="geometry">
            <mxPoint x="-3716.5" y="790" as="sourcePoint" />
            <mxPoint x="-4047" y="759.75" as="targetPoint" />
          </mxGeometry>
        </mxCell>
        <mxCell id="1lmrmKGu_N5sYzmFphA3-262" value="" style="ellipse;html=1;" parent="1" vertex="1">
          <mxGeometry x="-3896.5" y="775" width="30" height="30" as="geometry" />
        </mxCell>
        <mxCell id="1lmrmKGu_N5sYzmFphA3-263" value="Нажата кнопка &quot;Поиск&quot;" style="text;html=1;strokeColor=none;fillColor=none;align=center;verticalAlign=middle;whiteSpace=wrap;rounded=0;" parent="1" vertex="1">
          <mxGeometry x="-3846.5" y="995.5" width="112" height="30" as="geometry" />
        </mxCell>
        <mxCell id="1lmrmKGu_N5sYzmFphA3-264" value="" style="endArrow=classic;html=1;rounded=0;exitX=0;exitY=0.75;exitDx=0;exitDy=0;" parent="1" target="1lmrmKGu_N5sYzmFphA3-265" edge="1">
          <mxGeometry width="50" height="50" relative="1" as="geometry">
            <mxPoint x="-3716.5" y="981.5" as="sourcePoint" />
            <mxPoint x="-3966" y="924.75" as="targetPoint" />
          </mxGeometry>
        </mxCell>
        <mxCell id="1lmrmKGu_N5sYzmFphA3-265" value="" style="ellipse;html=1;" parent="1" vertex="1">
          <mxGeometry x="-3896.5" y="965.5" width="30" height="30" as="geometry" />
        </mxCell>
        <mxCell id="1lmrmKGu_N5sYzmFphA3-266" value="Нажата кнопка &quot;Диалоги&quot;" style="text;html=1;strokeColor=none;fillColor=none;align=center;verticalAlign=middle;whiteSpace=wrap;rounded=0;" parent="1" vertex="1">
          <mxGeometry x="-3846.5" y="754" width="112" height="30" as="geometry" />
        </mxCell>
        <mxCell id="1lmrmKGu_N5sYzmFphA3-267" value="Диалоги" style="text;html=1;strokeColor=none;fillColor=none;align=center;verticalAlign=middle;whiteSpace=wrap;rounded=0;" parent="1" vertex="1">
          <mxGeometry x="-3962.5" y="775" width="66" height="30" as="geometry" />
        </mxCell>
        <mxCell id="1lmrmKGu_N5sYzmFphA3-268" value="Поиск (с входом в систему)" style="text;html=1;strokeColor=none;fillColor=none;align=center;verticalAlign=middle;whiteSpace=wrap;rounded=0;" parent="1" vertex="1">
          <mxGeometry x="-4005" y="965.5" width="105" height="30" as="geometry" />
        </mxCell>
        <mxCell id="1lmrmKGu_N5sYzmFphA3-270" value="" style="ellipse;html=1;" parent="1" vertex="1">
          <mxGeometry x="-2257.5" y="1128" width="30" height="30" as="geometry" />
        </mxCell>
        <mxCell id="1lmrmKGu_N5sYzmFphA3-271" value="Поиск (с входом в систему)" style="text;html=1;strokeColor=none;fillColor=none;align=center;verticalAlign=middle;whiteSpace=wrap;rounded=0;" parent="1" vertex="1">
          <mxGeometry x="-2227.5" y="1128" width="105" height="30" as="geometry" />
        </mxCell>
        <mxCell id="1lmrmKGu_N5sYzmFphA3-272" value="" style="endArrow=classic;html=1;rounded=0;entryX=0.9;entryY=1.002;entryDx=0;entryDy=0;entryPerimeter=0;" parent="1" source="1lmrmKGu_N5sYzmFphA3-270" edge="1">
          <mxGeometry width="50" height="50" relative="1" as="geometry">
            <mxPoint x="-2186.5" y="1007.5" as="sourcePoint" />
            <mxPoint x="-2243.5" y="1050" as="targetPoint" />
          </mxGeometry>
        </mxCell>
        <mxCell id="1lmrmKGu_N5sYzmFphA3-273" value="Нажата кнопка &quot;Поиск&quot;" style="text;html=1;strokeColor=none;fillColor=none;align=center;verticalAlign=middle;whiteSpace=wrap;rounded=0;" parent="1" vertex="1">
          <mxGeometry x="-2241.5" y="1079" width="112" height="30" as="geometry" />
        </mxCell>
        <mxCell id="1lmrmKGu_N5sYzmFphA3-274" value="" style="endArrow=classic;html=1;rounded=0;exitX=0.25;exitY=1;exitDx=0;exitDy=0;" parent="1" source="1lmrmKGu_N5sYzmFphA3-85" target="1lmrmKGu_N5sYzmFphA3-275" edge="1">
          <mxGeometry width="50" height="50" relative="1" as="geometry">
            <mxPoint x="-3624.25" y="1772" as="sourcePoint" />
            <mxPoint x="-3954.75" y="1741.75" as="targetPoint" />
          </mxGeometry>
        </mxCell>
        <mxCell id="1lmrmKGu_N5sYzmFphA3-275" value="" style="ellipse;html=1;" parent="1" vertex="1">
          <mxGeometry x="-3642.25" y="1736" width="30" height="30" as="geometry" />
        </mxCell>
        <mxCell id="1lmrmKGu_N5sYzmFphA3-279" value="Нажата кнопка &quot;Уведомления&quot;" style="text;html=1;strokeColor=none;fillColor=none;align=center;verticalAlign=middle;whiteSpace=wrap;rounded=0;" parent="1" vertex="1">
          <mxGeometry x="-3734.25" y="1668" width="112" height="30" as="geometry" />
        </mxCell>
        <mxCell id="1lmrmKGu_N5sYzmFphA3-280" value="Уведомления" style="text;html=1;strokeColor=none;fillColor=none;align=center;verticalAlign=middle;whiteSpace=wrap;rounded=0;" parent="1" vertex="1">
          <mxGeometry x="-3668.25" y="1764" width="82" height="29" as="geometry" />
        </mxCell>
        <mxCell id="1lmrmKGu_N5sYzmFphA3-282" value="" style="ellipse;html=1;" parent="1" vertex="1">
          <mxGeometry x="-2021" y="1293" width="30" height="30" as="geometry" />
        </mxCell>
        <mxCell id="1lmrmKGu_N5sYzmFphA3-283" value="Просмотр своего аккаунта" style="text;html=1;strokeColor=none;fillColor=none;align=center;verticalAlign=middle;whiteSpace=wrap;rounded=0;" parent="1" vertex="1">
          <mxGeometry x="-2001" y="1293" width="130" height="30" as="geometry" />
        </mxCell>
        <mxCell id="1lmrmKGu_N5sYzmFphA3-284" value="" style="endArrow=classic;html=1;rounded=0;entryX=0.75;entryY=0;entryDx=0;entryDy=0;edgeStyle=orthogonalEdgeStyle;" parent="1" source="1lmrmKGu_N5sYzmFphA3-282" target="1lmrmKGu_N5sYzmFphA3-117" edge="1">
          <mxGeometry width="50" height="50" relative="1" as="geometry">
            <mxPoint x="-1995" y="1213.5" as="sourcePoint" />
            <mxPoint x="-2156" y="1279" as="targetPoint" />
          </mxGeometry>
        </mxCell>
        <mxCell id="1lmrmKGu_N5sYzmFphA3-285" value="Нажата кнопка &quot;Просмотр аккаунта&quot;" style="text;html=1;strokeColor=none;fillColor=none;align=center;verticalAlign=middle;whiteSpace=wrap;rounded=0;" parent="1" vertex="1">
          <mxGeometry x="-2211" y="1312" width="130" height="30" as="geometry" />
        </mxCell>
        <mxCell id="1lmrmKGu_N5sYzmFphA3-290" value="" style="ellipse;html=1;" parent="1" vertex="1">
          <mxGeometry x="-3445.25" y="82" width="30" height="30" as="geometry" />
        </mxCell>
        <mxCell id="1lmrmKGu_N5sYzmFphA3-291" value="Диалоги" style="text;html=1;strokeColor=none;fillColor=none;align=center;verticalAlign=middle;whiteSpace=wrap;rounded=0;" parent="1" vertex="1">
          <mxGeometry x="-3415.25" y="82" width="73.5" height="30" as="geometry" />
        </mxCell>
        <mxCell id="1lmrmKGu_N5sYzmFphA3-292" value="" style="endArrow=classic;html=1;rounded=0;" parent="1" source="1lmrmKGu_N5sYzmFphA3-290" edge="1">
          <mxGeometry width="50" height="50" relative="1" as="geometry">
            <mxPoint x="-3374.25" y="-60.5" as="sourcePoint" />
            <mxPoint x="-3429.75" y="192" as="targetPoint" />
          </mxGeometry>
        </mxCell>
        <mxCell id="1lmrmKGu_N5sYzmFphA3-293" value="Нажата кнопка &quot;Диалоги&quot;" style="text;html=1;strokeColor=none;fillColor=none;align=center;verticalAlign=middle;whiteSpace=wrap;rounded=0;" parent="1" vertex="1">
          <mxGeometry x="-3431.75" y="132" width="112" height="30" as="geometry" />
        </mxCell>
        <mxCell id="1lmrmKGu_N5sYzmFphA3-294" value="" style="ellipse;html=1;" parent="1" vertex="1">
          <mxGeometry x="-2401.25" y="83" width="30" height="30" as="geometry" />
        </mxCell>
        <mxCell id="1lmrmKGu_N5sYzmFphA3-295" value="Уведомления" style="text;html=1;strokeColor=none;fillColor=none;align=center;verticalAlign=middle;whiteSpace=wrap;rounded=0;" parent="1" vertex="1">
          <mxGeometry x="-2366.75" y="83" width="73.5" height="30" as="geometry" />
        </mxCell>
        <mxCell id="1lmrmKGu_N5sYzmFphA3-296" value="" style="endArrow=classic;html=1;rounded=0;" parent="1" source="1lmrmKGu_N5sYzmFphA3-294" edge="1">
          <mxGeometry width="50" height="50" relative="1" as="geometry">
            <mxPoint x="-2330.25" y="-59.5" as="sourcePoint" />
            <mxPoint x="-2385.75" y="193" as="targetPoint" />
          </mxGeometry>
        </mxCell>
        <mxCell id="1lmrmKGu_N5sYzmFphA3-297" value="Нажата кнопка &quot;Уведомления&quot;" style="text;html=1;strokeColor=none;fillColor=none;align=center;verticalAlign=middle;whiteSpace=wrap;rounded=0;" parent="1" vertex="1">
          <mxGeometry x="-2387.75" y="133" width="112" height="30" as="geometry" />
        </mxCell>
        <mxCell id="1lmrmKGu_N5sYzmFphA3-302" value="" style="endArrow=classic;html=1;rounded=0;entryX=1;entryY=0.5;entryDx=0;entryDy=0;" parent="1" target="1lmrmKGu_N5sYzmFphA3-73" edge="1">
          <mxGeometry width="50" height="50" relative="1" as="geometry">
            <mxPoint x="-3127.5" y="893.5" as="sourcePoint" />
            <mxPoint x="-2762.5" y="860.5" as="targetPoint" />
          </mxGeometry>
        </mxCell>
        <mxCell id="1lmrmKGu_N5sYzmFphA3-303" value="Нажата кнопка &quot;Полное инфо&quot;" style="text;html=1;strokeColor=none;fillColor=none;align=center;verticalAlign=middle;whiteSpace=wrap;rounded=0;" parent="1" vertex="1">
          <mxGeometry x="-2761" y="983.5" width="130" height="30" as="geometry" />
        </mxCell>
        <mxCell id="1lmrmKGu_N5sYzmFphA3-305" value="" style="endArrow=classic;html=1;rounded=0;exitX=0.75;exitY=0;exitDx=0;exitDy=0;edgeStyle=orthogonalEdgeStyle;" parent="1" source="1lmrmKGu_N5sYzmFphA3-73" edge="1">
          <mxGeometry width="50" height="50" relative="1" as="geometry">
            <mxPoint x="-2605.5" y="643.79" as="sourcePoint" />
            <mxPoint x="-3367.5" y="675.5" as="targetPoint" />
            <Array as="points">
              <mxPoint x="-3367.5" y="685.5" />
            </Array>
          </mxGeometry>
        </mxCell>
        <mxCell id="1lmrmKGu_N5sYzmFphA3-306" value="Нажата кнопка &quot;Отправка&quot; или область вне окна сообщения" style="text;html=1;strokeColor=none;fillColor=none;align=center;verticalAlign=middle;whiteSpace=wrap;rounded=0;" parent="1" vertex="1">
          <mxGeometry x="-3470" y="705.5" width="106.5" height="30" as="geometry" />
        </mxCell>
        <mxCell id="1lmrmKGu_N5sYzmFphA3-307" value="" style="endArrow=classic;html=1;rounded=0;exitX=0.25;exitY=1;exitDx=0;exitDy=0;" parent="1" target="1lmrmKGu_N5sYzmFphA3-308" edge="1">
          <mxGeometry width="50" height="50" relative="1" as="geometry">
            <mxPoint x="-3591.5" y="1023.5" as="sourcePoint" />
            <mxPoint x="-3918" y="1129.25" as="targetPoint" />
          </mxGeometry>
        </mxCell>
        <mxCell id="1lmrmKGu_N5sYzmFphA3-308" value="" style="ellipse;html=1;" parent="1" vertex="1">
          <mxGeometry x="-3605.5" y="1123.5" width="30" height="30" as="geometry" />
        </mxCell>
        <mxCell id="1lmrmKGu_N5sYzmFphA3-309" value="Нажата кнопка &quot;Просмотр аккаунта&quot;" style="text;html=1;strokeColor=none;fillColor=none;align=center;verticalAlign=middle;whiteSpace=wrap;rounded=0;" parent="1" vertex="1">
          <mxGeometry x="-3368" y="1055.5" width="140.5" height="30" as="geometry" />
        </mxCell>
        <mxCell id="1lmrmKGu_N5sYzmFphA3-310" value="" style="endArrow=classic;html=1;rounded=0;exitX=0.75;exitY=1;exitDx=0;exitDy=0;" parent="1" target="1lmrmKGu_N5sYzmFphA3-311" edge="1">
          <mxGeometry width="50" height="50" relative="1" as="geometry">
            <mxPoint x="-3358.5" y="1023.5" as="sourcePoint" />
            <mxPoint x="-3837" y="1232.75" as="targetPoint" />
          </mxGeometry>
        </mxCell>
        <mxCell id="1lmrmKGu_N5sYzmFphA3-311" value="" style="ellipse;html=1;" parent="1" vertex="1">
          <mxGeometry x="-3375" y="1121.5" width="30" height="30" as="geometry" />
        </mxCell>
        <mxCell id="1lmrmKGu_N5sYzmFphA3-312" value="Нажата кнопка &quot;Уведомления&quot;" style="text;html=1;strokeColor=none;fillColor=none;align=center;verticalAlign=middle;whiteSpace=wrap;rounded=0;" parent="1" vertex="1">
          <mxGeometry x="-3697.5" y="1055.5" width="112" height="30" as="geometry" />
        </mxCell>
        <mxCell id="1lmrmKGu_N5sYzmFphA3-313" value="Уведомления" style="text;html=1;strokeColor=none;fillColor=none;align=center;verticalAlign=middle;whiteSpace=wrap;rounded=0;" parent="1" vertex="1">
          <mxGeometry x="-3631.5" y="1151.5" width="82" height="29" as="geometry" />
        </mxCell>
        <mxCell id="1lmrmKGu_N5sYzmFphA3-330" value="Нажата кнопка &quot;Поиск&quot;" style="text;html=1;strokeColor=none;fillColor=none;align=center;verticalAlign=middle;whiteSpace=wrap;rounded=0;" parent="1" vertex="1">
          <mxGeometry x="-3863.75" y="398" width="112" height="30" as="geometry" />
        </mxCell>
        <mxCell id="1lmrmKGu_N5sYzmFphA3-331" value="" style="endArrow=classic;html=1;rounded=0;exitX=0;exitY=0.75;exitDx=0;exitDy=0;" parent="1" target="1lmrmKGu_N5sYzmFphA3-332" edge="1">
          <mxGeometry width="50" height="50" relative="1" as="geometry">
            <mxPoint x="-3751.75" y="389" as="sourcePoint" />
            <mxPoint x="-4001.25" y="332.25" as="targetPoint" />
          </mxGeometry>
        </mxCell>
        <mxCell id="1lmrmKGu_N5sYzmFphA3-332" value="" style="ellipse;html=1;" parent="1" vertex="1">
          <mxGeometry x="-3889.25" y="373" width="30" height="30" as="geometry" />
        </mxCell>
        <mxCell id="1lmrmKGu_N5sYzmFphA3-335" value="Поиск (с входом в систему)" style="text;html=1;strokeColor=none;fillColor=none;align=center;verticalAlign=middle;whiteSpace=wrap;rounded=0;" parent="1" vertex="1">
          <mxGeometry x="-3997.75" y="373" width="105" height="30" as="geometry" />
        </mxCell>
        <mxCell id="1lmrmKGu_N5sYzmFphA3-336" value="" style="endArrow=classic;html=1;rounded=0;exitX=0.25;exitY=1;exitDx=0;exitDy=0;" parent="1" target="1lmrmKGu_N5sYzmFphA3-337" edge="1">
          <mxGeometry width="50" height="50" relative="1" as="geometry">
            <mxPoint x="-3626.75" y="451" as="sourcePoint" />
            <mxPoint x="-3953.25" y="556.75" as="targetPoint" />
          </mxGeometry>
        </mxCell>
        <mxCell id="1lmrmKGu_N5sYzmFphA3-337" value="" style="ellipse;html=1;" parent="1" vertex="1">
          <mxGeometry x="-3640.75" y="521" width="30" height="30" as="geometry" />
        </mxCell>
        <mxCell id="1lmrmKGu_N5sYzmFphA3-338" value="Нажата кнопка &quot;Просмотр аккаунта&quot;" style="text;html=1;strokeColor=none;fillColor=none;align=center;verticalAlign=middle;whiteSpace=wrap;rounded=0;" parent="1" vertex="1">
          <mxGeometry x="-3403.25" y="472" width="140.5" height="30" as="geometry" />
        </mxCell>
        <mxCell id="1lmrmKGu_N5sYzmFphA3-339" value="" style="endArrow=classic;html=1;rounded=0;exitX=0.75;exitY=1;exitDx=0;exitDy=0;" parent="1" target="1lmrmKGu_N5sYzmFphA3-340" edge="1">
          <mxGeometry width="50" height="50" relative="1" as="geometry">
            <mxPoint x="-3393.75" y="451" as="sourcePoint" />
            <mxPoint x="-3872.25" y="660.25" as="targetPoint" />
          </mxGeometry>
        </mxCell>
        <mxCell id="1lmrmKGu_N5sYzmFphA3-340" value="" style="ellipse;html=1;" parent="1" vertex="1">
          <mxGeometry x="-3409.25" y="521" width="30" height="30" as="geometry" />
        </mxCell>
        <mxCell id="1lmrmKGu_N5sYzmFphA3-341" value="Нажата кнопка &quot;Уведомления&quot;" style="text;html=1;strokeColor=none;fillColor=none;align=center;verticalAlign=middle;whiteSpace=wrap;rounded=0;" parent="1" vertex="1">
          <mxGeometry x="-3732.75" y="472" width="112" height="30" as="geometry" />
        </mxCell>
        <mxCell id="1lmrmKGu_N5sYzmFphA3-342" value="Уведомления" style="text;html=1;strokeColor=none;fillColor=none;align=center;verticalAlign=middle;whiteSpace=wrap;rounded=0;" parent="1" vertex="1">
          <mxGeometry x="-3666.75" y="549" width="82" height="29" as="geometry" />
        </mxCell>
        <mxCell id="1lmrmKGu_N5sYzmFphA3-360" value="Просмотр аккаунта" style="text;html=1;strokeColor=none;fillColor=none;align=center;verticalAlign=middle;whiteSpace=wrap;rounded=0;" parent="1" vertex="1">
          <mxGeometry x="-2101.25" y="242" width="140.5" height="30" as="geometry" />
        </mxCell>
        <mxCell id="1lmrmKGu_N5sYzmFphA3-361" value="" style="endArrow=classic;html=1;rounded=0;exitX=1;exitY=0.25;exitDx=0;exitDy=0;" parent="1" source="1lmrmKGu_N5sYzmFphA3-59" target="1lmrmKGu_N5sYzmFphA3-362" edge="1">
          <mxGeometry width="50" height="50" relative="1" as="geometry">
            <mxPoint x="-2352.25" y="453" as="sourcePoint" />
            <mxPoint x="-2830.75" y="662.25" as="targetPoint" />
          </mxGeometry>
        </mxCell>
        <mxCell id="1lmrmKGu_N5sYzmFphA3-362" value="" style="ellipse;html=1;" parent="1" vertex="1">
          <mxGeometry x="-2131.25" y="243" width="30" height="30" as="geometry" />
        </mxCell>
        <mxCell id="1lmrmKGu_N5sYzmFphA3-365" value="Нажата кнопка &quot;Поиск&quot;" style="text;html=1;strokeColor=none;fillColor=none;align=center;verticalAlign=middle;whiteSpace=wrap;rounded=0;" parent="1" vertex="1">
          <mxGeometry x="-2233.25" y="391" width="112" height="30" as="geometry" />
        </mxCell>
        <mxCell id="1lmrmKGu_N5sYzmFphA3-366" value="" style="endArrow=classic;html=1;rounded=0;exitX=1;exitY=0.75;exitDx=0;exitDy=0;" parent="1" source="1lmrmKGu_N5sYzmFphA3-59" target="1lmrmKGu_N5sYzmFphA3-367" edge="1">
          <mxGeometry width="50" height="50" relative="1" as="geometry">
            <mxPoint x="-1924.51" y="390" as="sourcePoint" />
            <mxPoint x="-2174.01" y="333.25" as="targetPoint" />
          </mxGeometry>
        </mxCell>
        <mxCell id="1lmrmKGu_N5sYzmFphA3-367" value="" style="ellipse;html=1;" parent="1" vertex="1">
          <mxGeometry x="-2126.25" y="374" width="30" height="30" as="geometry" />
        </mxCell>
        <mxCell id="1lmrmKGu_N5sYzmFphA3-368" value="Поиск (с входом в систему)" style="text;html=1;strokeColor=none;fillColor=none;align=center;verticalAlign=middle;whiteSpace=wrap;rounded=0;" parent="1" vertex="1">
          <mxGeometry x="-2096.25" y="374" width="105" height="30" as="geometry" />
        </mxCell>
        <mxCell id="1lmrmKGu_N5sYzmFphA3-370" value="Нажата кнопка &quot;Просмотр аккаунта&quot;" style="text;html=1;strokeColor=none;fillColor=none;align=center;verticalAlign=middle;whiteSpace=wrap;rounded=0;" parent="1" vertex="1">
          <mxGeometry x="-2240.25" y="263" width="140.5" height="30" as="geometry" />
        </mxCell>
        <mxCell id="1lmrmKGu_N5sYzmFphA3-371" value="" style="endArrow=classic;html=1;rounded=0;exitX=0.25;exitY=0;exitDx=0;exitDy=0;" parent="1" source="1lmrmKGu_N5sYzmFphA3-59" target="1lmrmKGu_N5sYzmFphA3-372" edge="1">
          <mxGeometry width="50" height="50" relative="1" as="geometry">
            <mxPoint x="-2609.5" y="34" as="sourcePoint" />
            <mxPoint x="-2685.75" y="79.75" as="targetPoint" />
          </mxGeometry>
        </mxCell>
        <mxCell id="1lmrmKGu_N5sYzmFphA3-372" value="" style="ellipse;html=1;" parent="1" vertex="1">
          <mxGeometry x="-2598.25" y="82" width="30" height="30" as="geometry" />
        </mxCell>
        <mxCell id="1lmrmKGu_N5sYzmFphA3-373" value="Нажата кнопка &quot;Диалоги&quot;" style="text;html=1;strokeColor=none;fillColor=none;align=center;verticalAlign=middle;whiteSpace=wrap;rounded=0;" parent="1" vertex="1">
          <mxGeometry x="-2591.25" y="149" width="112" height="30" as="geometry" />
        </mxCell>
        <mxCell id="1lmrmKGu_N5sYzmFphA3-374" value="Диалоги" style="text;html=1;strokeColor=none;fillColor=none;align=center;verticalAlign=middle;whiteSpace=wrap;rounded=0;" parent="1" vertex="1">
          <mxGeometry x="-2568.25" y="82" width="66" height="30" as="geometry" />
        </mxCell>
        <mxCell id="1lmrmKGu_N5sYzmFphA3-376" value="Нажата кнопка &quot;Уведомления&quot;" style="text;html=1;strokeColor=none;fillColor=none;align=center;verticalAlign=middle;whiteSpace=wrap;rounded=0;" parent="1" vertex="1">
          <mxGeometry x="-2369.5" y="749" width="112" height="30" as="geometry" />
        </mxCell>
        <mxCell id="1lmrmKGu_N5sYzmFphA3-377" value="" style="endArrow=classic;html=1;rounded=0;exitX=0.25;exitY=0;exitDx=0;exitDy=0;edgeStyle=orthogonalEdgeStyle;" parent="1" source="1lmrmKGu_N5sYzmFphA3-26" edge="1">
          <mxGeometry width="50" height="50" relative="1" as="geometry">
            <mxPoint x="-2608.02" y="738.48" as="sourcePoint" />
            <mxPoint x="-2510" y="669" as="targetPoint" />
            <Array as="points">
              <mxPoint x="-2510" y="789" />
            </Array>
          </mxGeometry>
        </mxCell>
        <mxCell id="1lmrmKGu_N5sYzmFphA3-378" value="Нажата кнопка &quot;Диалоги&quot;" style="text;html=1;strokeColor=none;fillColor=none;align=center;verticalAlign=middle;whiteSpace=wrap;rounded=0;" parent="1" vertex="1">
          <mxGeometry x="-2622.5" y="749" width="112" height="30" as="geometry" />
        </mxCell>
        <mxCell id="1lmrmKGu_N5sYzmFphA3-379" value="&lt;span style=&quot;font-size: 10px;&quot;&gt;Сохраненные пользователи&lt;/span&gt;" style="rounded=1;whiteSpace=wrap;html=1;" parent="1" vertex="1">
          <mxGeometry x="-3566.5" y="771.5" width="76" height="32" as="geometry" />
        </mxCell>
        <mxCell id="1lmrmKGu_N5sYzmFphA3-380" value="&lt;span style=&quot;font-size: 10px;&quot;&gt;Сохраненные пользователи&lt;/span&gt;" style="rounded=1;whiteSpace=wrap;html=1;" parent="1" vertex="1">
          <mxGeometry x="-2476.5" y="797" width="76" height="32" as="geometry" />
        </mxCell>
        <mxCell id="1lmrmKGu_N5sYzmFphA3-381" value="&lt;span style=&quot;font-size: 10px;&quot;&gt;Сохраненные пользователи&lt;/span&gt;" style="rounded=1;whiteSpace=wrap;html=1;" parent="1" vertex="1">
          <mxGeometry x="-3601.75" y="200" width="76" height="32" as="geometry" />
        </mxCell>
        <mxCell id="1lmrmKGu_N5sYzmFphA3-382" value="&lt;span style=&quot;font-size: 10px;&quot;&gt;Сохраненные пользователи&lt;/span&gt;" style="rounded=1;whiteSpace=wrap;html=1;" parent="1" vertex="1">
          <mxGeometry x="-2548.75" y="201" width="76" height="32" as="geometry" />
        </mxCell>
        <mxCell id="1lmrmKGu_N5sYzmFphA3-383" value="&lt;span style=&quot;font-size: 10px;&quot;&gt;Сохраненные пользователи&lt;/span&gt;" style="rounded=1;whiteSpace=wrap;html=1;" parent="1" vertex="1">
          <mxGeometry x="-3592.25" y="1384" width="76" height="32" as="geometry" />
        </mxCell>
        <mxCell id="1lmrmKGu_N5sYzmFphA3-384" value="&lt;span style=&quot;font-size: 10px;&quot;&gt;Сохраненные пользователи&lt;/span&gt;" style="rounded=1;whiteSpace=wrap;html=1;" parent="1" vertex="1">
          <mxGeometry x="-2411" y="1371" width="76" height="32" as="geometry" />
        </mxCell>
        <mxCell id="1lmrmKGu_N5sYzmFphA3-385" value="&lt;span style=&quot;font-size: 10px;&quot;&gt;Сохраненные пользователи&lt;/span&gt;" style="rounded=1;whiteSpace=wrap;html=1;" parent="1" vertex="1">
          <mxGeometry x="-2420.25" y="1943" width="76" height="32" as="geometry" />
        </mxCell>
        <mxCell id="1lmrmKGu_N5sYzmFphA3-387" value="&lt;font style=&quot;font-size: 10px;&quot;&gt;Выход из аккаунта&lt;/font&gt;" style="rounded=1;whiteSpace=wrap;html=1;" parent="1" vertex="1">
          <mxGeometry x="-2335.5" y="1573" width="90.5" height="32" as="geometry" />
        </mxCell>
        <mxCell id="1lmrmKGu_N5sYzmFphA3-389" value="Нажата кнопка &quot;Выход из аккаунта&quot;" style="text;html=1;strokeColor=none;fillColor=none;align=center;verticalAlign=middle;whiteSpace=wrap;rounded=0;" parent="1" vertex="1">
          <mxGeometry x="-2145" y="1406" width="120" height="30" as="geometry" />
        </mxCell>
        <mxCell id="1lmrmKGu_N5sYzmFphA3-390" value="" style="endArrow=classic;html=1;rounded=0;exitX=1;exitY=0.75;exitDx=0;exitDy=0;" parent="1" target="1lmrmKGu_N5sYzmFphA3-391" edge="1">
          <mxGeometry width="50" height="50" relative="1" as="geometry">
            <mxPoint x="-2156" y="1379" as="sourcePoint" />
            <mxPoint x="-1970" y="1352.5" as="targetPoint" />
          </mxGeometry>
        </mxCell>
        <mxCell id="1lmrmKGu_N5sYzmFphA3-391" value="" style="ellipse;html=1;" parent="1" vertex="1">
          <mxGeometry x="-2066" y="1364" width="30" height="30" as="geometry" />
        </mxCell>
        <mxCell id="1lmrmKGu_N5sYzmFphA3-392" value="Вход в систему" style="text;html=1;strokeColor=none;fillColor=none;align=center;verticalAlign=middle;whiteSpace=wrap;rounded=0;" parent="1" vertex="1">
          <mxGeometry x="-2036" y="1364" width="105" height="30" as="geometry" />
        </mxCell>
        <mxCell id="1lmrmKGu_N5sYzmFphA3-393" value="Нажата кнопка &quot;Уведомления&quot;" style="text;html=1;strokeColor=none;fillColor=none;align=center;verticalAlign=middle;whiteSpace=wrap;rounded=0;" parent="1" vertex="1">
          <mxGeometry x="-2154.25" y="2025" width="120" height="30" as="geometry" />
        </mxCell>
        <mxCell id="1lmrmKGu_N5sYzmFphA3-394" value="" style="endArrow=classic;html=1;rounded=0;exitX=1;exitY=0.75;exitDx=0;exitDy=0;" parent="1" target="1lmrmKGu_N5sYzmFphA3-395" edge="1">
          <mxGeometry width="50" height="50" relative="1" as="geometry">
            <mxPoint x="-2165.25" y="1998" as="sourcePoint" />
            <mxPoint x="-1979.25" y="1971.5" as="targetPoint" />
          </mxGeometry>
        </mxCell>
        <mxCell id="1lmrmKGu_N5sYzmFphA3-395" value="" style="ellipse;html=1;" parent="1" vertex="1">
          <mxGeometry x="-2075.25" y="1983" width="30" height="30" as="geometry" />
        </mxCell>
        <mxCell id="1lmrmKGu_N5sYzmFphA3-396" value="Уведомления" style="text;html=1;strokeColor=none;fillColor=none;align=center;verticalAlign=middle;whiteSpace=wrap;rounded=0;" parent="1" vertex="1">
          <mxGeometry x="-2045.25" y="1983" width="105" height="30" as="geometry" />
        </mxCell>
        <mxCell id="1lmrmKGu_N5sYzmFphA3-397" value="Нажата кнопка &quot;Сохраненные пользователи&quot;" style="text;html=1;strokeColor=none;fillColor=none;align=center;verticalAlign=middle;whiteSpace=wrap;rounded=0;" parent="1" vertex="1">
          <mxGeometry x="-2154.25" y="2168" width="120" height="30" as="geometry" />
        </mxCell>
        <mxCell id="1lmrmKGu_N5sYzmFphA3-398" value="" style="endArrow=classic;html=1;rounded=0;exitX=1;exitY=0.75;exitDx=0;exitDy=0;" parent="1" target="1lmrmKGu_N5sYzmFphA3-399" edge="1">
          <mxGeometry width="50" height="50" relative="1" as="geometry">
            <mxPoint x="-2165.25" y="2141" as="sourcePoint" />
            <mxPoint x="-1979.25" y="2114.5" as="targetPoint" />
          </mxGeometry>
        </mxCell>
        <mxCell id="1lmrmKGu_N5sYzmFphA3-399" value="" style="ellipse;html=1;" parent="1" vertex="1">
          <mxGeometry x="-2075.25" y="2126" width="30" height="30" as="geometry" />
        </mxCell>
        <mxCell id="1lmrmKGu_N5sYzmFphA3-400" value="Сохраненные пользователи" style="text;html=1;strokeColor=none;fillColor=none;align=center;verticalAlign=middle;whiteSpace=wrap;rounded=0;" parent="1" vertex="1">
          <mxGeometry x="-2045.25" y="2126" width="105" height="30" as="geometry" />
        </mxCell>
        <mxCell id="1lmrmKGu_N5sYzmFphA3-401" value="" style="endArrow=classic;html=1;rounded=0;exitX=0;exitY=0.25;exitDx=0;exitDy=0;" parent="1" target="1lmrmKGu_N5sYzmFphA3-402" edge="1">
          <mxGeometry width="50" height="50" relative="1" as="geometry">
            <mxPoint x="-2630.25" y="2048" as="sourcePoint" />
            <mxPoint x="-2884.75" y="2008.75" as="targetPoint" />
          </mxGeometry>
        </mxCell>
        <mxCell id="1lmrmKGu_N5sYzmFphA3-402" value="" style="ellipse;html=1;" parent="1" vertex="1">
          <mxGeometry x="-2780.25" y="2033" width="30" height="30" as="geometry" />
        </mxCell>
        <mxCell id="1lmrmKGu_N5sYzmFphA3-403" value="Нажата кнопка &quot;Поиск&quot;" style="text;html=1;strokeColor=none;fillColor=none;align=center;verticalAlign=middle;whiteSpace=wrap;rounded=0;" parent="1" vertex="1">
          <mxGeometry x="-2742.25" y="2147" width="112" height="30" as="geometry" />
        </mxCell>
        <mxCell id="1lmrmKGu_N5sYzmFphA3-404" value="" style="endArrow=classic;html=1;rounded=0;exitX=0;exitY=0.75;exitDx=0;exitDy=0;" parent="1" target="1lmrmKGu_N5sYzmFphA3-405" edge="1">
          <mxGeometry width="50" height="50" relative="1" as="geometry">
            <mxPoint x="-2630.25" y="2142" as="sourcePoint" />
            <mxPoint x="-2803.75" y="2076.25" as="targetPoint" />
          </mxGeometry>
        </mxCell>
        <mxCell id="1lmrmKGu_N5sYzmFphA3-405" value="" style="ellipse;html=1;" parent="1" vertex="1">
          <mxGeometry x="-2780.25" y="2127" width="30" height="30" as="geometry" />
        </mxCell>
        <mxCell id="1lmrmKGu_N5sYzmFphA3-406" value="Нажата кнопка &quot;Диалоги&quot;" style="text;html=1;strokeColor=none;fillColor=none;align=center;verticalAlign=middle;whiteSpace=wrap;rounded=0;" parent="1" vertex="1">
          <mxGeometry x="-2742.25" y="2013" width="112" height="30" as="geometry" />
        </mxCell>
        <mxCell id="1lmrmKGu_N5sYzmFphA3-407" value="Диалоги" style="text;html=1;strokeColor=none;fillColor=none;align=center;verticalAlign=middle;whiteSpace=wrap;rounded=0;" parent="1" vertex="1">
          <mxGeometry x="-2840.25" y="2033" width="60" height="30" as="geometry" />
        </mxCell>
        <mxCell id="1lmrmKGu_N5sYzmFphA3-408" value="Поиск (с входом в систему)" style="text;html=1;strokeColor=none;fillColor=none;align=center;verticalAlign=middle;whiteSpace=wrap;rounded=0;" parent="1" vertex="1">
          <mxGeometry x="-2885.25" y="2127" width="105" height="30" as="geometry" />
        </mxCell>
        <mxCell id="1lmrmKGu_N5sYzmFphA3-409" value="Нажата кнопка &quot;Уведомления&quot;" style="text;html=1;strokeColor=none;fillColor=none;align=center;verticalAlign=middle;whiteSpace=wrap;rounded=0;" parent="1" vertex="1">
          <mxGeometry x="-2145" y="1512" width="120" height="30" as="geometry" />
        </mxCell>
        <mxCell id="1lmrmKGu_N5sYzmFphA3-410" value="" style="endArrow=classic;html=1;rounded=0;exitX=1;exitY=0.75;exitDx=0;exitDy=0;" parent="1" target="1lmrmKGu_N5sYzmFphA3-411" edge="1">
          <mxGeometry width="50" height="50" relative="1" as="geometry">
            <mxPoint x="-2156" y="1495" as="sourcePoint" />
            <mxPoint x="-1970" y="1468.5" as="targetPoint" />
          </mxGeometry>
        </mxCell>
        <mxCell id="1lmrmKGu_N5sYzmFphA3-411" value="" style="ellipse;html=1;" parent="1" vertex="1">
          <mxGeometry x="-2066" y="1480" width="30" height="30" as="geometry" />
        </mxCell>
        <mxCell id="1lmrmKGu_N5sYzmFphA3-412" value="Уведомления" style="text;html=1;strokeColor=none;fillColor=none;align=center;verticalAlign=middle;whiteSpace=wrap;rounded=0;" parent="1" vertex="1">
          <mxGeometry x="-2036" y="1480" width="105" height="30" as="geometry" />
        </mxCell>
        <mxCell id="1lmrmKGu_N5sYzmFphA3-417" value="" style="endArrow=classic;html=1;rounded=0;exitX=0;exitY=0.25;exitDx=0;exitDy=0;" parent="1" target="1lmrmKGu_N5sYzmFphA3-418" edge="1">
          <mxGeometry width="50" height="50" relative="1" as="geometry">
            <mxPoint x="-2621" y="1425" as="sourcePoint" />
            <mxPoint x="-2875.5" y="1385.75" as="targetPoint" />
          </mxGeometry>
        </mxCell>
        <mxCell id="1lmrmKGu_N5sYzmFphA3-418" value="" style="ellipse;html=1;" parent="1" vertex="1">
          <mxGeometry x="-2771" y="1410" width="30" height="30" as="geometry" />
        </mxCell>
        <mxCell id="1lmrmKGu_N5sYzmFphA3-419" value="Нажата кнопка &quot;Поиск&quot;" style="text;html=1;strokeColor=none;fillColor=none;align=center;verticalAlign=middle;whiteSpace=wrap;rounded=0;" parent="1" vertex="1">
          <mxGeometry x="-2733" y="1524" width="112" height="30" as="geometry" />
        </mxCell>
        <mxCell id="1lmrmKGu_N5sYzmFphA3-420" value="" style="endArrow=classic;html=1;rounded=0;exitX=0;exitY=0.75;exitDx=0;exitDy=0;" parent="1" target="1lmrmKGu_N5sYzmFphA3-421" edge="1">
          <mxGeometry width="50" height="50" relative="1" as="geometry">
            <mxPoint x="-2621" y="1519" as="sourcePoint" />
            <mxPoint x="-2794.5" y="1453.25" as="targetPoint" />
          </mxGeometry>
        </mxCell>
        <mxCell id="1lmrmKGu_N5sYzmFphA3-421" value="" style="ellipse;html=1;" parent="1" vertex="1">
          <mxGeometry x="-2771" y="1504" width="30" height="30" as="geometry" />
        </mxCell>
        <mxCell id="1lmrmKGu_N5sYzmFphA3-422" value="Нажата кнопка &quot;Диалоги&quot;" style="text;html=1;strokeColor=none;fillColor=none;align=center;verticalAlign=middle;whiteSpace=wrap;rounded=0;" parent="1" vertex="1">
          <mxGeometry x="-2733" y="1390" width="112" height="30" as="geometry" />
        </mxCell>
        <mxCell id="1lmrmKGu_N5sYzmFphA3-423" value="Диалоги" style="text;html=1;strokeColor=none;fillColor=none;align=center;verticalAlign=middle;whiteSpace=wrap;rounded=0;" parent="1" vertex="1">
          <mxGeometry x="-2831" y="1410" width="60" height="30" as="geometry" />
        </mxCell>
        <mxCell id="1lmrmKGu_N5sYzmFphA3-424" value="Поиск (с входом в систему)" style="text;html=1;strokeColor=none;fillColor=none;align=center;verticalAlign=middle;whiteSpace=wrap;rounded=0;" parent="1" vertex="1">
          <mxGeometry x="-2876" y="1504" width="105" height="30" as="geometry" />
        </mxCell>
        <mxCell id="1lmrmKGu_N5sYzmFphA3-426" value="Нажата кнопка &quot;Сохраненные пользователи&quot;" style="text;html=1;strokeColor=none;fillColor=none;align=center;verticalAlign=middle;whiteSpace=wrap;rounded=0;" parent="1" vertex="1">
          <mxGeometry x="-2145" y="1623" width="120" height="30" as="geometry" />
        </mxCell>
        <mxCell id="1lmrmKGu_N5sYzmFphA3-427" value="" style="endArrow=classic;html=1;rounded=0;exitX=1;exitY=0.75;exitDx=0;exitDy=0;" parent="1" target="1lmrmKGu_N5sYzmFphA3-428" edge="1">
          <mxGeometry width="50" height="50" relative="1" as="geometry">
            <mxPoint x="-2156" y="1596" as="sourcePoint" />
            <mxPoint x="-1970" y="1569.5" as="targetPoint" />
          </mxGeometry>
        </mxCell>
        <mxCell id="1lmrmKGu_N5sYzmFphA3-428" value="" style="ellipse;html=1;" parent="1" vertex="1">
          <mxGeometry x="-2066" y="1581" width="30" height="30" as="geometry" />
        </mxCell>
        <mxCell id="1lmrmKGu_N5sYzmFphA3-429" value="Сохраненные пользователи" style="text;html=1;strokeColor=none;fillColor=none;align=center;verticalAlign=middle;whiteSpace=wrap;rounded=0;" parent="1" vertex="1">
          <mxGeometry x="-2036" y="1581" width="105" height="30" as="geometry" />
        </mxCell>
        <mxCell id="1lmrmKGu_N5sYzmFphA3-430" value="" style="endArrow=classic;html=1;rounded=0;exitX=0;exitY=0.25;exitDx=0;exitDy=0;" parent="1" target="1lmrmKGu_N5sYzmFphA3-431" edge="1">
          <mxGeometry width="50" height="50" relative="1" as="geometry">
            <mxPoint x="-3742.75" y="1416" as="sourcePoint" />
            <mxPoint x="-3997.25" y="1376.75" as="targetPoint" />
          </mxGeometry>
        </mxCell>
        <mxCell id="1lmrmKGu_N5sYzmFphA3-431" value="" style="ellipse;html=1;" parent="1" vertex="1">
          <mxGeometry x="-3892.75" y="1401" width="30" height="30" as="geometry" />
        </mxCell>
        <mxCell id="1lmrmKGu_N5sYzmFphA3-432" value="Нажата кнопка &quot;Поиск&quot;" style="text;html=1;strokeColor=none;fillColor=none;align=center;verticalAlign=middle;whiteSpace=wrap;rounded=0;" parent="1" vertex="1">
          <mxGeometry x="-3854.75" y="1515" width="112" height="30" as="geometry" />
        </mxCell>
        <mxCell id="1lmrmKGu_N5sYzmFphA3-433" value="" style="endArrow=classic;html=1;rounded=0;exitX=0;exitY=0.75;exitDx=0;exitDy=0;" parent="1" target="1lmrmKGu_N5sYzmFphA3-434" edge="1">
          <mxGeometry width="50" height="50" relative="1" as="geometry">
            <mxPoint x="-3742.75" y="1510" as="sourcePoint" />
            <mxPoint x="-3916.25" y="1444.25" as="targetPoint" />
          </mxGeometry>
        </mxCell>
        <mxCell id="1lmrmKGu_N5sYzmFphA3-434" value="" style="ellipse;html=1;" parent="1" vertex="1">
          <mxGeometry x="-3892.75" y="1495" width="30" height="30" as="geometry" />
        </mxCell>
        <mxCell id="1lmrmKGu_N5sYzmFphA3-435" value="Нажата кнопка &quot;Диалоги&quot;" style="text;html=1;strokeColor=none;fillColor=none;align=center;verticalAlign=middle;whiteSpace=wrap;rounded=0;" parent="1" vertex="1">
          <mxGeometry x="-3854.75" y="1381" width="112" height="30" as="geometry" />
        </mxCell>
        <mxCell id="1lmrmKGu_N5sYzmFphA3-436" value="Диалоги" style="text;html=1;strokeColor=none;fillColor=none;align=center;verticalAlign=middle;whiteSpace=wrap;rounded=0;" parent="1" vertex="1">
          <mxGeometry x="-3952.75" y="1401" width="60" height="30" as="geometry" />
        </mxCell>
        <mxCell id="1lmrmKGu_N5sYzmFphA3-437" value="Поиск (с входом в систему)" style="text;html=1;strokeColor=none;fillColor=none;align=center;verticalAlign=middle;whiteSpace=wrap;rounded=0;" parent="1" vertex="1">
          <mxGeometry x="-3997.75" y="1495" width="105" height="30" as="geometry" />
        </mxCell>
        <mxCell id="1lmrmKGu_N5sYzmFphA3-438" value="Нажата кнопка &quot;Сохраненные пользователи&quot;" style="text;html=1;strokeColor=none;fillColor=none;align=center;verticalAlign=middle;whiteSpace=wrap;rounded=0;" parent="1" vertex="1">
          <mxGeometry x="-3865.25" y="1608" width="120" height="30" as="geometry" />
        </mxCell>
        <mxCell id="1lmrmKGu_N5sYzmFphA3-439" value="" style="endArrow=classic;html=1;rounded=0;exitX=-0.005;exitY=0.861;exitDx=0;exitDy=0;exitPerimeter=0;" parent="1" source="1lmrmKGu_N5sYzmFphA3-85" target="1lmrmKGu_N5sYzmFphA3-440" edge="1">
          <mxGeometry width="50" height="50" relative="1" as="geometry">
            <mxPoint x="-4158.75" y="1702" as="sourcePoint" />
            <mxPoint x="-3972.75" y="1675.5" as="targetPoint" />
          </mxGeometry>
        </mxCell>
        <mxCell id="1lmrmKGu_N5sYzmFphA3-440" value="" style="ellipse;html=1;" parent="1" vertex="1">
          <mxGeometry x="-3891.75" y="1585" width="30" height="30" as="geometry" />
        </mxCell>
        <mxCell id="1lmrmKGu_N5sYzmFphA3-441" value="Сохраненные пользователи" style="text;html=1;strokeColor=none;fillColor=none;align=center;verticalAlign=middle;whiteSpace=wrap;rounded=0;" parent="1" vertex="1">
          <mxGeometry x="-3990.75" y="1585" width="105" height="30" as="geometry" />
        </mxCell>
        <mxCell id="1lmrmKGu_N5sYzmFphA3-442" value="Нажата кнопка &quot;Сохраненные пользователи&quot;" style="text;html=1;strokeColor=none;fillColor=none;align=center;verticalAlign=middle;whiteSpace=wrap;rounded=0;" parent="1" vertex="1">
          <mxGeometry x="-3837.5" y="890" width="121" height="30" as="geometry" />
        </mxCell>
        <mxCell id="1lmrmKGu_N5sYzmFphA3-443" value="" style="endArrow=classic;html=1;rounded=0;exitX=-0.005;exitY=0.861;exitDx=0;exitDy=0;exitPerimeter=0;" parent="1" target="1lmrmKGu_N5sYzmFphA3-444" edge="1">
          <mxGeometry width="50" height="50" relative="1" as="geometry">
            <mxPoint x="-3718" y="882" as="sourcePoint" />
            <mxPoint x="-3944" y="957.5" as="targetPoint" />
          </mxGeometry>
        </mxCell>
        <mxCell id="1lmrmKGu_N5sYzmFphA3-444" value="" style="ellipse;html=1;" parent="1" vertex="1">
          <mxGeometry x="-3896.5" y="865.5" width="30" height="30" as="geometry" />
        </mxCell>
        <mxCell id="1lmrmKGu_N5sYzmFphA3-445" value="Сохраненные пользователи" style="text;html=1;strokeColor=none;fillColor=none;align=center;verticalAlign=middle;whiteSpace=wrap;rounded=0;" parent="1" vertex="1">
          <mxGeometry x="-4001.5" y="865.5" width="105" height="30" as="geometry" />
        </mxCell>
        <mxCell id="1lmrmKGu_N5sYzmFphA3-448" value="Сохраненные пользователи" style="text;html=1;strokeColor=none;fillColor=none;align=center;verticalAlign=middle;whiteSpace=wrap;rounded=0;" parent="1" vertex="1">
          <mxGeometry x="-3537.75" y="2128" width="180" height="30" as="geometry" />
        </mxCell>
        <mxCell id="1lmrmKGu_N5sYzmFphA3-449" value="v" style="rounded=0;whiteSpace=wrap;html=1;" parent="1" vertex="1">
          <mxGeometry x="-3680.25" y="1858" width="465" height="260" as="geometry" />
        </mxCell>
        <mxCell id="1lmrmKGu_N5sYzmFphA3-451" value="" style="rounded=0;whiteSpace=wrap;html=1;" parent="1" vertex="1">
          <mxGeometry x="-3616.75" y="1930" width="355" height="80" as="geometry" />
        </mxCell>
        <mxCell id="1lmrmKGu_N5sYzmFphA3-452" value="Имя пользователя" style="text;html=1;strokeColor=none;fillColor=none;align=center;verticalAlign=middle;whiteSpace=wrap;rounded=0;" parent="1" vertex="1">
          <mxGeometry x="-3609.75" y="1926" width="110" height="30" as="geometry" />
        </mxCell>
        <mxCell id="1lmrmKGu_N5sYzmFphA3-453" value="&lt;font style=&quot;font-size: 10px;&quot;&gt;Полное инфо&lt;/font&gt;" style="rounded=1;whiteSpace=wrap;html=1;" parent="1" vertex="1">
          <mxGeometry x="-3609.75" y="1979" width="66" height="21" as="geometry" />
        </mxCell>
        <mxCell id="1lmrmKGu_N5sYzmFphA3-454" value="&lt;font style=&quot;font-size: 11px;&quot;&gt;Аккаунт хабра/почта&lt;/font&gt;" style="text;html=1;strokeColor=none;fillColor=none;align=left;verticalAlign=middle;whiteSpace=wrap;rounded=0;" parent="1" vertex="1">
          <mxGeometry x="-3606.75" y="1940" width="110" height="30" as="geometry" />
        </mxCell>
        <mxCell id="1lmrmKGu_N5sYzmFphA3-455" value="&lt;font style=&quot;font-size: 10px;&quot;&gt;Просмотр аккаунта&lt;/font&gt;" style="rounded=1;whiteSpace=wrap;html=1;" parent="1" vertex="1">
          <mxGeometry x="-3280.25" y="1866" width="58" height="32" as="geometry" />
        </mxCell>
        <mxCell id="1lmrmKGu_N5sYzmFphA3-456" value="&lt;font style=&quot;font-size: 10px;&quot;&gt;Написать сообщение&lt;/font&gt;" style="rounded=1;whiteSpace=wrap;html=1;" parent="1" vertex="1">
          <mxGeometry x="-3538.75" y="1979" width="103" height="21" as="geometry" />
        </mxCell>
        <mxCell id="1lmrmKGu_N5sYzmFphA3-458" value="&lt;font style=&quot;font-size: 10px;&quot;&gt;Удалить&lt;/font&gt;" style="rounded=1;whiteSpace=wrap;html=1;" parent="1" vertex="1">
          <mxGeometry x="-3430.75" y="1979" width="46" height="21" as="geometry" />
        </mxCell>
        <mxCell id="1lmrmKGu_N5sYzmFphA3-459" style="edgeStyle=orthogonalEdgeStyle;rounded=0;orthogonalLoop=1;jettySize=auto;html=1;exitX=0.5;exitY=1;exitDx=0;exitDy=0;" parent="1" source="1lmrmKGu_N5sYzmFphA3-456" target="1lmrmKGu_N5sYzmFphA3-456" edge="1">
          <mxGeometry relative="1" as="geometry" />
        </mxCell>
        <mxCell id="1lmrmKGu_N5sYzmFphA3-460" value="&lt;font style=&quot;font-size: 10px;&quot;&gt;Уведомления&lt;/font&gt;" style="rounded=1;whiteSpace=wrap;html=1;" parent="1" vertex="1">
          <mxGeometry x="-3350.25" y="1866" width="68" height="32" as="geometry" />
        </mxCell>
        <mxCell id="1lmrmKGu_N5sYzmFphA3-461" value="&lt;span style=&quot;font-size: 10px;&quot;&gt;Диалоги&lt;/span&gt;" style="rounded=1;whiteSpace=wrap;html=1;" parent="1" vertex="1">
          <mxGeometry x="-3449.25" y="1866" width="46" height="32" as="geometry" />
        </mxCell>
        <mxCell id="1lmrmKGu_N5sYzmFphA3-462" value="&lt;span style=&quot;font-size: 10px;&quot;&gt;Поиск&lt;/span&gt;" style="rounded=1;whiteSpace=wrap;html=1;" parent="1" vertex="1">
          <mxGeometry x="-3399.25" y="1866" width="46" height="32" as="geometry" />
        </mxCell>
        <mxCell id="1lmrmKGu_N5sYzmFphA3-467" value="&lt;span style=&quot;font-size: 10px;&quot;&gt;Сохраненные пользователи&lt;/span&gt;" style="rounded=1;whiteSpace=wrap;html=1;" parent="1" vertex="1">
          <mxGeometry x="-3529.25" y="1866" width="76" height="32" as="geometry" />
        </mxCell>
        <mxCell id="1lmrmKGu_N5sYzmFphA3-469" value="" style="endArrow=classic;html=1;rounded=0;exitX=0.25;exitY=1;exitDx=0;exitDy=0;" parent="1" target="1lmrmKGu_N5sYzmFphA3-470" edge="1">
          <mxGeometry width="50" height="50" relative="1" as="geometry">
            <mxPoint x="-3563.75" y="2118" as="sourcePoint" />
            <mxPoint x="-3890.75" y="2223.75" as="targetPoint" />
          </mxGeometry>
        </mxCell>
        <mxCell id="1lmrmKGu_N5sYzmFphA3-470" value="" style="ellipse;html=1;" parent="1" vertex="1">
          <mxGeometry x="-3578.25" y="2218" width="30" height="30" as="geometry" />
        </mxCell>
        <mxCell id="1lmrmKGu_N5sYzmFphA3-471" value="Нажата кнопка &quot;Просмотр аккаунта&quot;" style="text;html=1;strokeColor=none;fillColor=none;align=center;verticalAlign=middle;whiteSpace=wrap;rounded=0;" parent="1" vertex="1">
          <mxGeometry x="-3340.75" y="2150" width="140.5" height="30" as="geometry" />
        </mxCell>
        <mxCell id="1lmrmKGu_N5sYzmFphA3-472" value="" style="endArrow=classic;html=1;rounded=0;exitX=0.75;exitY=1;exitDx=0;exitDy=0;" parent="1" target="1lmrmKGu_N5sYzmFphA3-473" edge="1">
          <mxGeometry width="50" height="50" relative="1" as="geometry">
            <mxPoint x="-3331.75" y="2118" as="sourcePoint" />
            <mxPoint x="-3809.75" y="2327.25" as="targetPoint" />
          </mxGeometry>
        </mxCell>
        <mxCell id="1lmrmKGu_N5sYzmFphA3-473" value="" style="ellipse;html=1;" parent="1" vertex="1">
          <mxGeometry x="-3347.75" y="2216" width="30" height="30" as="geometry" />
        </mxCell>
        <mxCell id="1lmrmKGu_N5sYzmFphA3-474" value="Нажата кнопка &quot;Уведомления&quot;" style="text;html=1;strokeColor=none;fillColor=none;align=center;verticalAlign=middle;whiteSpace=wrap;rounded=0;" parent="1" vertex="1">
          <mxGeometry x="-3670.25" y="2150" width="112" height="30" as="geometry" />
        </mxCell>
        <mxCell id="1lmrmKGu_N5sYzmFphA3-475" value="Уведомления" style="text;html=1;strokeColor=none;fillColor=none;align=center;verticalAlign=middle;whiteSpace=wrap;rounded=0;" parent="1" vertex="1">
          <mxGeometry x="-3604.25" y="2246" width="82" height="29" as="geometry" />
        </mxCell>
        <mxCell id="1lmrmKGu_N5sYzmFphA3-476" value="Просмотр аккаунта" style="text;html=1;strokeColor=none;fillColor=none;align=center;verticalAlign=middle;whiteSpace=wrap;rounded=0;" parent="1" vertex="1">
          <mxGeometry x="-3385.25" y="2248" width="105" height="30" as="geometry" />
        </mxCell>
        <mxCell id="1lmrmKGu_N5sYzmFphA3-477" value="Нажата кнопка &quot;Поиск&quot;" style="text;html=1;strokeColor=none;fillColor=none;align=center;verticalAlign=middle;whiteSpace=wrap;rounded=0;" parent="1" vertex="1">
          <mxGeometry x="-3792.25" y="2060" width="112" height="30" as="geometry" />
        </mxCell>
        <mxCell id="1lmrmKGu_N5sYzmFphA3-478" value="" style="endArrow=classic;html=1;rounded=0;exitX=0;exitY=0.75;exitDx=0;exitDy=0;" parent="1" target="1lmrmKGu_N5sYzmFphA3-479" edge="1">
          <mxGeometry width="50" height="50" relative="1" as="geometry">
            <mxPoint x="-3680.25" y="2055" as="sourcePoint" />
            <mxPoint x="-3853.75" y="1989.25" as="targetPoint" />
          </mxGeometry>
        </mxCell>
        <mxCell id="1lmrmKGu_N5sYzmFphA3-479" value="" style="ellipse;html=1;" parent="1" vertex="1">
          <mxGeometry x="-3830.25" y="2040" width="30" height="30" as="geometry" />
        </mxCell>
        <mxCell id="1lmrmKGu_N5sYzmFphA3-480" value="Поиск (с входом в систему)" style="text;html=1;strokeColor=none;fillColor=none;align=center;verticalAlign=middle;whiteSpace=wrap;rounded=0;" parent="1" vertex="1">
          <mxGeometry x="-3935.25" y="2040" width="105" height="30" as="geometry" />
        </mxCell>
        <mxCell id="1lmrmKGu_N5sYzmFphA3-493" value="" style="rounded=0;whiteSpace=wrap;html=1;" parent="1" vertex="1">
          <mxGeometry x="-3616.75" y="2014" width="355" height="80" as="geometry" />
        </mxCell>
        <mxCell id="1lmrmKGu_N5sYzmFphA3-494" value="Имя пользователя" style="text;html=1;strokeColor=none;fillColor=none;align=center;verticalAlign=middle;whiteSpace=wrap;rounded=0;" parent="1" vertex="1">
          <mxGeometry x="-3609.75" y="2010" width="110" height="30" as="geometry" />
        </mxCell>
        <mxCell id="1lmrmKGu_N5sYzmFphA3-495" value="&lt;font style=&quot;font-size: 10px;&quot;&gt;Полное инфо&lt;/font&gt;" style="rounded=1;whiteSpace=wrap;html=1;" parent="1" vertex="1">
          <mxGeometry x="-3609.75" y="2063" width="66" height="21" as="geometry" />
        </mxCell>
        <mxCell id="1lmrmKGu_N5sYzmFphA3-496" value="&lt;font style=&quot;font-size: 11px;&quot;&gt;Аккаунт хабра/почта&lt;/font&gt;" style="text;html=1;strokeColor=none;fillColor=none;align=left;verticalAlign=middle;whiteSpace=wrap;rounded=0;" parent="1" vertex="1">
          <mxGeometry x="-3606.75" y="2024" width="110" height="30" as="geometry" />
        </mxCell>
        <mxCell id="1lmrmKGu_N5sYzmFphA3-497" value="&lt;font style=&quot;font-size: 10px;&quot;&gt;Написать сообщение&lt;/font&gt;" style="rounded=1;whiteSpace=wrap;html=1;" parent="1" vertex="1">
          <mxGeometry x="-3538.75" y="2063" width="103" height="21" as="geometry" />
        </mxCell>
        <mxCell id="1lmrmKGu_N5sYzmFphA3-500" style="edgeStyle=orthogonalEdgeStyle;rounded=0;orthogonalLoop=1;jettySize=auto;html=1;exitX=0.5;exitY=1;exitDx=0;exitDy=0;" parent="1" source="1lmrmKGu_N5sYzmFphA3-497" target="1lmrmKGu_N5sYzmFphA3-497" edge="1">
          <mxGeometry relative="1" as="geometry" />
        </mxCell>
        <mxCell id="1lmrmKGu_N5sYzmFphA3-501" value="Нажата кнопка &quot;Сохраненные пользователи&quot;" style="text;html=1;strokeColor=none;fillColor=none;align=center;verticalAlign=middle;whiteSpace=wrap;rounded=0;" parent="1" vertex="1">
          <mxGeometry x="-3210.25" y="2063" width="120" height="30" as="geometry" />
        </mxCell>
        <mxCell id="1lmrmKGu_N5sYzmFphA3-502" value="" style="endArrow=classic;html=1;rounded=0;entryX=1;entryY=0.75;entryDx=0;entryDy=0;exitX=0;exitY=0.5;exitDx=0;exitDy=0;" parent="1" source="1lmrmKGu_N5sYzmFphA3-503" target="1lmrmKGu_N5sYzmFphA3-449" edge="1">
          <mxGeometry width="50" height="50" relative="1" as="geometry">
            <mxPoint x="-3013.75" y="1988" as="sourcePoint" />
            <mxPoint x="-3169.25" y="2141.5" as="targetPoint" />
          </mxGeometry>
        </mxCell>
        <mxCell id="1lmrmKGu_N5sYzmFphA3-503" value="" style="ellipse;html=1;" parent="1" vertex="1">
          <mxGeometry x="-3087.25" y="2039" width="30" height="30" as="geometry" />
        </mxCell>
        <mxCell id="1lmrmKGu_N5sYzmFphA3-504" value="Сохраненные пользователи" style="text;html=1;strokeColor=none;fillColor=none;align=center;verticalAlign=middle;whiteSpace=wrap;rounded=0;" parent="1" vertex="1">
          <mxGeometry x="-3056.25" y="2039" width="105" height="30" as="geometry" />
        </mxCell>
        <mxCell id="1lmrmKGu_N5sYzmFphA3-505" value="Нажата кнопка &quot;Диалоги&quot;" style="text;html=1;strokeColor=none;fillColor=none;align=center;verticalAlign=middle;whiteSpace=wrap;rounded=0;" parent="1" vertex="1">
          <mxGeometry x="-3792.25" y="1990" width="112" height="30" as="geometry" />
        </mxCell>
        <mxCell id="1lmrmKGu_N5sYzmFphA3-506" value="" style="endArrow=classic;html=1;rounded=0;exitX=0;exitY=0.75;exitDx=0;exitDy=0;" parent="1" target="1lmrmKGu_N5sYzmFphA3-507" edge="1">
          <mxGeometry width="50" height="50" relative="1" as="geometry">
            <mxPoint x="-3680.25" y="1985" as="sourcePoint" />
            <mxPoint x="-3853.75" y="1919.25" as="targetPoint" />
          </mxGeometry>
        </mxCell>
        <mxCell id="1lmrmKGu_N5sYzmFphA3-507" value="" style="ellipse;html=1;" parent="1" vertex="1">
          <mxGeometry x="-3830.25" y="1970" width="30" height="30" as="geometry" />
        </mxCell>
        <mxCell id="1lmrmKGu_N5sYzmFphA3-508" value="Диалоги" style="text;html=1;strokeColor=none;fillColor=none;align=center;verticalAlign=middle;whiteSpace=wrap;rounded=0;" parent="1" vertex="1">
          <mxGeometry x="-3935.25" y="1970" width="105" height="30" as="geometry" />
        </mxCell>
        <mxCell id="1lmrmKGu_N5sYzmFphA3-509" value="Нажата кнопка &quot;Полное инфо&quot;" style="text;html=1;strokeColor=none;fillColor=none;align=center;verticalAlign=middle;whiteSpace=wrap;rounded=0;" parent="1" vertex="1">
          <mxGeometry x="-3792.25" y="1906" width="112" height="30" as="geometry" />
        </mxCell>
        <mxCell id="1lmrmKGu_N5sYzmFphA3-510" value="" style="endArrow=classic;html=1;rounded=0;exitX=0;exitY=0.75;exitDx=0;exitDy=0;" parent="1" target="1lmrmKGu_N5sYzmFphA3-511" edge="1">
          <mxGeometry width="50" height="50" relative="1" as="geometry">
            <mxPoint x="-3680.25" y="1901" as="sourcePoint" />
            <mxPoint x="-3853.75" y="1835.25" as="targetPoint" />
          </mxGeometry>
        </mxCell>
        <mxCell id="1lmrmKGu_N5sYzmFphA3-511" value="" style="ellipse;html=1;" parent="1" vertex="1">
          <mxGeometry x="-3830.25" y="1886" width="30" height="30" as="geometry" />
        </mxCell>
        <mxCell id="1lmrmKGu_N5sYzmFphA3-513" value="&lt;font style=&quot;font-size: 10px;&quot;&gt;Удалить&lt;/font&gt;" style="rounded=1;whiteSpace=wrap;html=1;" parent="1" vertex="1">
          <mxGeometry x="-3432.75" y="2064.5" width="46" height="21" as="geometry" />
        </mxCell>
        <mxCell id="1lmrmKGu_N5sYzmFphA3-514" value="Просмотр информации о пользователе (с входом)" style="text;html=1;strokeColor=none;fillColor=none;align=center;verticalAlign=middle;whiteSpace=wrap;rounded=0;" parent="1" vertex="1">
          <mxGeometry x="-3997.75" y="1886" width="180" height="30" as="geometry" />
        </mxCell>
        <mxCell id="1lmrmKGu_N5sYzmFphA3-515" value="Нажата кнопка &quot;Написать сообщение&quot;" style="text;html=1;strokeColor=none;fillColor=none;align=center;verticalAlign=middle;whiteSpace=wrap;rounded=0;" parent="1" vertex="1">
          <mxGeometry x="-3204.25" y="1958" width="120" height="30" as="geometry" />
        </mxCell>
        <mxCell id="1lmrmKGu_N5sYzmFphA3-516" value="" style="endArrow=classic;html=1;rounded=0;exitX=1;exitY=0.75;exitDx=0;exitDy=0;" parent="1" target="1lmrmKGu_N5sYzmFphA3-517" edge="1">
          <mxGeometry width="50" height="50" relative="1" as="geometry">
            <mxPoint x="-3215.25" y="1931" as="sourcePoint" />
            <mxPoint x="-3029.25" y="1904.5" as="targetPoint" />
          </mxGeometry>
        </mxCell>
        <mxCell id="1lmrmKGu_N5sYzmFphA3-517" value="" style="ellipse;html=1;" parent="1" vertex="1">
          <mxGeometry x="-3125.25" y="1916" width="30" height="30" as="geometry" />
        </mxCell>
        <mxCell id="1lmrmKGu_N5sYzmFphA3-518" value="Отправка сообщений" style="text;html=1;strokeColor=none;fillColor=none;align=center;verticalAlign=middle;whiteSpace=wrap;rounded=0;" parent="1" vertex="1">
          <mxGeometry x="-3095.25" y="1916" width="105" height="30" as="geometry" />
        </mxCell>
        <mxCell id="1lmrmKGu_N5sYzmFphA3-520" value="Нажата кнопка &quot;Просмотр аккаунта&quot;" style="text;html=1;strokeColor=none;fillColor=none;align=center;verticalAlign=middle;whiteSpace=wrap;rounded=0;" parent="1" vertex="1">
          <mxGeometry x="-3632.75" y="1336" width="140.5" height="30" as="geometry" />
        </mxCell>
        <mxCell id="1lmrmKGu_N5sYzmFphA3-521" value="" style="endArrow=classic;html=1;rounded=0;exitX=0.25;exitY=0;exitDx=0;exitDy=0;" parent="1" source="1lmrmKGu_N5sYzmFphA3-85" target="1lmrmKGu_N5sYzmFphA3-522" edge="1">
          <mxGeometry width="50" height="50" relative="1" as="geometry">
            <mxPoint x="-3558.25" y="1109" as="sourcePoint" />
            <mxPoint x="-4036.75" y="1318.25" as="targetPoint" />
          </mxGeometry>
        </mxCell>
        <mxCell id="1lmrmKGu_N5sYzmFphA3-522" value="" style="ellipse;html=1;" parent="1" vertex="1">
          <mxGeometry x="-3642.25" y="1276" width="30" height="30" as="geometry" />
        </mxCell>
        <mxCell id="1lmrmKGu_N5sYzmFphA3-523" value="Просмотр своего аккаунта" style="text;html=1;strokeColor=none;fillColor=none;align=center;verticalAlign=middle;whiteSpace=wrap;rounded=0;" parent="1" vertex="1">
          <mxGeometry x="-3685" y="1246" width="118.5" height="30" as="geometry" />
        </mxCell>
        <mxCell id="1lmrmKGu_N5sYzmFphA3-525" value="" style="endArrow=classic;html=1;rounded=0;exitX=0.25;exitY=0;exitDx=0;exitDy=0;" parent="1" target="1lmrmKGu_N5sYzmFphA3-526" edge="1">
          <mxGeometry width="50" height="50" relative="1" as="geometry">
            <mxPoint x="-3397.75" y="1377" as="sourcePoint" />
            <mxPoint x="-3806.25" y="1319.25" as="targetPoint" />
          </mxGeometry>
        </mxCell>
        <mxCell id="1lmrmKGu_N5sYzmFphA3-526" value="" style="ellipse;html=1;" parent="1" vertex="1">
          <mxGeometry x="-3411.75" y="1277" width="30" height="30" as="geometry" />
        </mxCell>
        <mxCell id="1lmrmKGu_N5sYzmFphA3-528" value="Поиск (с входом в систему)" style="text;html=1;strokeColor=none;fillColor=none;align=center;verticalAlign=middle;whiteSpace=wrap;rounded=0;" parent="1" vertex="1">
          <mxGeometry x="-3443.75" y="1246" width="105" height="30" as="geometry" />
        </mxCell>
        <mxCell id="1lmrmKGu_N5sYzmFphA3-529" value="Нажата кнопка &quot;Полное инфо&quot;" style="text;html=1;strokeColor=none;fillColor=none;align=center;verticalAlign=middle;whiteSpace=wrap;rounded=0;" parent="1" vertex="1">
          <mxGeometry x="-3272.75" y="1487" width="120" height="30" as="geometry" />
        </mxCell>
        <mxCell id="1lmrmKGu_N5sYzmFphA3-530" value="" style="endArrow=classic;html=1;rounded=0;entryX=1;entryY=0.75;entryDx=0;entryDy=0;exitX=0;exitY=0.5;exitDx=0;exitDy=0;" parent="1" source="1lmrmKGu_N5sYzmFphA3-531" edge="1">
          <mxGeometry width="50" height="50" relative="1" as="geometry">
            <mxPoint x="-3076.25" y="1412" as="sourcePoint" />
            <mxPoint x="-3277.25" y="1477" as="targetPoint" />
          </mxGeometry>
        </mxCell>
        <mxCell id="1lmrmKGu_N5sYzmFphA3-531" value="" style="ellipse;html=1;" parent="1" vertex="1">
          <mxGeometry x="-3149.75" y="1463" width="30" height="30" as="geometry" />
        </mxCell>
        <mxCell id="1lmrmKGu_N5sYzmFphA3-532" value="Просмотр информации о пользователе (с входом)" style="text;html=1;strokeColor=none;fillColor=none;align=center;verticalAlign=middle;whiteSpace=wrap;rounded=0;" parent="1" vertex="1">
          <mxGeometry x="-3118.75" y="1463" width="172.5" height="30" as="geometry" />
        </mxCell>
        <mxCell id="1lmrmKGu_N5sYzmFphA3-533" value="" style="ellipse;html=1;" parent="1" vertex="1">
          <mxGeometry x="-3127.5" y="878.5" width="30" height="30" as="geometry" />
        </mxCell>
        <mxCell id="1lmrmKGu_N5sYzmFphA3-534" value="Нажата кнопка &quot;Написать сообщение&quot;" style="text;html=1;strokeColor=none;fillColor=none;align=center;verticalAlign=middle;whiteSpace=wrap;rounded=0;" parent="1" vertex="1">
          <mxGeometry x="-3253" y="898.5" width="130" height="30" as="geometry" />
        </mxCell>
        <mxCell id="1lmrmKGu_N5sYzmFphA3-535" value="Отправка сообщений" style="text;html=1;strokeColor=none;fillColor=none;align=center;verticalAlign=middle;whiteSpace=wrap;rounded=0;" parent="1" vertex="1">
          <mxGeometry x="-3103.5" y="880.5" width="90" height="30" as="geometry" />
        </mxCell>
        <mxCell id="1lmrmKGu_N5sYzmFphA3-536" value="" style="ellipse;html=1;" parent="1" vertex="1">
          <mxGeometry x="-3381.5" y="645.5" width="30" height="30" as="geometry" />
        </mxCell>
        <mxCell id="1lmrmKGu_N5sYzmFphA3-537" value="Поиск (с входом в систему)" style="text;html=1;strokeColor=none;fillColor=none;align=center;verticalAlign=middle;whiteSpace=wrap;rounded=0;" parent="1" vertex="1">
          <mxGeometry x="-3354.5" y="645.5" width="107" height="30" as="geometry" />
        </mxCell>
        <mxCell id="1lmrmKGu_N5sYzmFphA3-538" value="" style="endArrow=classic;html=1;rounded=0;exitX=0;exitY=0.25;exitDx=0;exitDy=0;" parent="1" target="1lmrmKGu_N5sYzmFphA3-539" edge="1">
          <mxGeometry width="50" height="50" relative="1" as="geometry">
            <mxPoint x="-2627.5" y="1020.5" as="sourcePoint" />
            <mxPoint x="-2958" y="990.25" as="targetPoint" />
          </mxGeometry>
        </mxCell>
        <mxCell id="1lmrmKGu_N5sYzmFphA3-539" value="" style="ellipse;html=1;" parent="1" vertex="1">
          <mxGeometry x="-2807.5" y="1005.5" width="30" height="30" as="geometry" />
        </mxCell>
        <mxCell id="1lmrmKGu_N5sYzmFphA3-540" value="Просмотр информации о пользователе (с входом)" style="text;html=1;strokeColor=none;fillColor=none;align=center;verticalAlign=middle;whiteSpace=wrap;rounded=0;" parent="1" vertex="1">
          <mxGeometry x="-2960" y="1005.5" width="152.5" height="30" as="geometry" />
        </mxCell>
        <mxCell id="1lmrmKGu_N5sYzmFphA3-541" value="" style="ellipse;html=1;" parent="1" vertex="1">
          <mxGeometry x="-2524.5" y="639" width="30" height="30" as="geometry" />
        </mxCell>
        <mxCell id="1lmrmKGu_N5sYzmFphA3-542" value="Диалоги" style="text;html=1;strokeColor=none;fillColor=none;align=center;verticalAlign=middle;whiteSpace=wrap;rounded=0;" parent="1" vertex="1">
          <mxGeometry x="-2593.5" y="639" width="66" height="30" as="geometry" />
        </mxCell>
        <mxCell id="1lmrmKGu_N5sYzmFphA3-543" value="" style="endArrow=classic;html=1;rounded=0;exitX=0.25;exitY=0;exitDx=0;exitDy=0;edgeStyle=orthogonalEdgeStyle;" parent="1" edge="1">
          <mxGeometry width="50" height="50" relative="1" as="geometry">
            <mxPoint x="-2266.5" y="789" as="sourcePoint" />
            <mxPoint x="-2265.5" y="669" as="targetPoint" />
            <Array as="points">
              <mxPoint x="-2265.5" y="789" />
            </Array>
          </mxGeometry>
        </mxCell>
        <mxCell id="1lmrmKGu_N5sYzmFphA3-544" value="" style="ellipse;html=1;" parent="1" vertex="1">
          <mxGeometry x="-2280" y="639" width="30" height="30" as="geometry" />
        </mxCell>
        <mxCell id="1lmrmKGu_N5sYzmFphA3-545" value="Просмотр уведомлений" style="text;html=1;strokeColor=none;fillColor=none;align=center;verticalAlign=middle;whiteSpace=wrap;rounded=0;" parent="1" vertex="1">
          <mxGeometry x="-2350.5" y="639" width="66" height="30" as="geometry" />
        </mxCell>
        <mxCell id="1lmrmKGu_N5sYzmFphA3-546" value="Нажата кнопка &quot;Просмотр аккаунта&quot;" style="text;html=1;strokeColor=none;fillColor=none;align=center;verticalAlign=middle;whiteSpace=wrap;rounded=0;" parent="1" vertex="1">
          <mxGeometry x="-2617" y="1070" width="140.5" height="30" as="geometry" />
        </mxCell>
        <mxCell id="1lmrmKGu_N5sYzmFphA3-547" value="" style="endArrow=classic;html=1;rounded=0;exitX=0.75;exitY=1;exitDx=0;exitDy=0;" parent="1" target="1lmrmKGu_N5sYzmFphA3-548" edge="1">
          <mxGeometry width="50" height="50" relative="1" as="geometry">
            <mxPoint x="-2607.5" y="1049" as="sourcePoint" />
            <mxPoint x="-3086" y="1258.25" as="targetPoint" />
          </mxGeometry>
        </mxCell>
        <mxCell id="1lmrmKGu_N5sYzmFphA3-548" value="" style="ellipse;html=1;" parent="1" vertex="1">
          <mxGeometry x="-2623" y="1119" width="30" height="30" as="geometry" />
        </mxCell>
        <mxCell id="1lmrmKGu_N5sYzmFphA3-549" value="Просмотр своего аккаунта" style="text;html=1;strokeColor=none;fillColor=none;align=center;verticalAlign=middle;whiteSpace=wrap;rounded=0;" parent="1" vertex="1">
          <mxGeometry x="-3354.5" y="1123.5" width="118.5" height="30" as="geometry" />
        </mxCell>
        <mxCell id="1lmrmKGu_N5sYzmFphA3-550" value="Просмотр своего аккаунта" style="text;html=1;strokeColor=none;fillColor=none;align=center;verticalAlign=middle;whiteSpace=wrap;rounded=0;" parent="1" vertex="1">
          <mxGeometry x="-2735.5" y="1117" width="118.5" height="30" as="geometry" />
        </mxCell>
        <mxCell id="1lmrmKGu_N5sYzmFphA3-555" value="Нажата кнопка &quot;Написать сообщение&quot;" style="text;html=1;strokeColor=none;fillColor=none;align=center;verticalAlign=middle;whiteSpace=wrap;rounded=0;" parent="1" vertex="1">
          <mxGeometry x="-2761" y="903" width="130" height="30" as="geometry" />
        </mxCell>
        <mxCell id="1lmrmKGu_N5sYzmFphA3-556" value="" style="endArrow=classic;html=1;rounded=0;exitX=0;exitY=0.25;exitDx=0;exitDy=0;" parent="1" target="1lmrmKGu_N5sYzmFphA3-557" edge="1">
          <mxGeometry width="50" height="50" relative="1" as="geometry">
            <mxPoint x="-2627.5" y="940" as="sourcePoint" />
            <mxPoint x="-2958" y="909.75" as="targetPoint" />
          </mxGeometry>
        </mxCell>
        <mxCell id="1lmrmKGu_N5sYzmFphA3-557" value="" style="ellipse;html=1;" parent="1" vertex="1">
          <mxGeometry x="-2807.5" y="925" width="30" height="30" as="geometry" />
        </mxCell>
        <mxCell id="1lmrmKGu_N5sYzmFphA3-558" value="Отправка сообщений" style="text;html=1;strokeColor=none;fillColor=none;align=center;verticalAlign=middle;whiteSpace=wrap;rounded=0;" parent="1" vertex="1">
          <mxGeometry x="-2873.5" y="925" width="66" height="30" as="geometry" />
        </mxCell>
        <mxCell id="1lmrmKGu_N5sYzmFphA3-559" value="Нажата кнопка &lt;br&gt;&quot;Сохраненные пользователи&quot;" style="text;html=1;strokeColor=none;fillColor=none;align=center;verticalAlign=middle;whiteSpace=wrap;rounded=0;" parent="1" vertex="1">
          <mxGeometry x="-2770" y="819" width="139" height="30" as="geometry" />
        </mxCell>
        <mxCell id="1lmrmKGu_N5sYzmFphA3-560" value="" style="endArrow=classic;html=1;rounded=0;exitX=0;exitY=0.25;exitDx=0;exitDy=0;" parent="1" target="1lmrmKGu_N5sYzmFphA3-561" edge="1">
          <mxGeometry width="50" height="50" relative="1" as="geometry">
            <mxPoint x="-2627.5" y="856" as="sourcePoint" />
            <mxPoint x="-2958" y="825.75" as="targetPoint" />
          </mxGeometry>
        </mxCell>
        <mxCell id="1lmrmKGu_N5sYzmFphA3-561" value="" style="ellipse;html=1;" parent="1" vertex="1">
          <mxGeometry x="-2807.5" y="841" width="30" height="30" as="geometry" />
        </mxCell>
        <mxCell id="1lmrmKGu_N5sYzmFphA3-562" value="Сохраненные пользователи" style="text;html=1;strokeColor=none;fillColor=none;align=center;verticalAlign=middle;whiteSpace=wrap;rounded=0;" parent="1" vertex="1">
          <mxGeometry x="-2880" y="841" width="66" height="30" as="geometry" />
        </mxCell>
        <mxCell id="1lmrmKGu_N5sYzmFphA3-563" value="Нажата кнопка &lt;br&gt;&quot;Сохраненные пользователи&quot;" style="text;html=1;strokeColor=none;fillColor=none;align=center;verticalAlign=middle;whiteSpace=wrap;rounded=0;" parent="1" vertex="1">
          <mxGeometry x="-3894.25" y="230" width="139" height="30" as="geometry" />
        </mxCell>
        <mxCell id="1lmrmKGu_N5sYzmFphA3-564" value="" style="endArrow=classic;html=1;rounded=0;exitX=0;exitY=0.25;exitDx=0;exitDy=0;" parent="1" target="1lmrmKGu_N5sYzmFphA3-565" edge="1">
          <mxGeometry width="50" height="50" relative="1" as="geometry">
            <mxPoint x="-3751.75" y="267" as="sourcePoint" />
            <mxPoint x="-4082.25" y="236.75" as="targetPoint" />
          </mxGeometry>
        </mxCell>
        <mxCell id="1lmrmKGu_N5sYzmFphA3-565" value="" style="ellipse;html=1;" parent="1" vertex="1">
          <mxGeometry x="-3931.75" y="252" width="30" height="30" as="geometry" />
        </mxCell>
        <mxCell id="1lmrmKGu_N5sYzmFphA3-566" value="Сохраненные пользователи" style="text;html=1;strokeColor=none;fillColor=none;align=center;verticalAlign=middle;whiteSpace=wrap;rounded=0;" parent="1" vertex="1">
          <mxGeometry x="-4004.25" y="252" width="66" height="30" as="geometry" />
        </mxCell>
        <mxCell id="1lmrmKGu_N5sYzmFphA3-567" value="Нажата кнопка &lt;br&gt;&quot;Сохраненные пользователи&quot;" style="text;html=1;strokeColor=none;fillColor=none;align=center;verticalAlign=middle;whiteSpace=wrap;rounded=0;" parent="1" vertex="1">
          <mxGeometry x="-2841.25" y="291" width="139" height="30" as="geometry" />
        </mxCell>
        <mxCell id="1lmrmKGu_N5sYzmFphA3-568" value="" style="endArrow=classic;html=1;rounded=0;exitX=0;exitY=0.25;exitDx=0;exitDy=0;" parent="1" target="1lmrmKGu_N5sYzmFphA3-569" edge="1">
          <mxGeometry width="50" height="50" relative="1" as="geometry">
            <mxPoint x="-2698.75" y="328" as="sourcePoint" />
            <mxPoint x="-3029.25" y="297.75" as="targetPoint" />
          </mxGeometry>
        </mxCell>
        <mxCell id="1lmrmKGu_N5sYzmFphA3-569" value="" style="ellipse;html=1;" parent="1" vertex="1">
          <mxGeometry x="-2878.75" y="313" width="30" height="30" as="geometry" />
        </mxCell>
        <mxCell id="1lmrmKGu_N5sYzmFphA3-570" value="Сохраненные пользователи" style="text;html=1;strokeColor=none;fillColor=none;align=center;verticalAlign=middle;whiteSpace=wrap;rounded=0;" parent="1" vertex="1">
          <mxGeometry x="-2951.25" y="313" width="66" height="30" as="geometry" />
        </mxCell>
        <mxCell id="1lmrmKGu_N5sYzmFphA3-571" value="" style="ellipse;html=1;" parent="1" vertex="1">
          <mxGeometry x="-1724.87" y="779.5" width="30" height="30" as="geometry" />
        </mxCell>
        <mxCell id="1lmrmKGu_N5sYzmFphA3-572" value="Нажата кнопка &quot;Переход к поиску&quot; и до этого был совершен вход" style="text;html=1;strokeColor=none;fillColor=none;align=center;verticalAlign=middle;whiteSpace=wrap;rounded=0;" parent="1" vertex="1">
          <mxGeometry x="-1667.37" y="744.5" width="120" height="30" as="geometry" />
        </mxCell>
        <mxCell id="1lmrmKGu_N5sYzmFphA3-573" value="" style="ellipse;html=1;" parent="1" vertex="1">
          <mxGeometry x="-1424.87" y="996.5" width="30" height="30" as="geometry" />
        </mxCell>
        <mxCell id="1lmrmKGu_N5sYzmFphA3-574" value="Переход к поиску (без входа в систему)" style="text;html=1;strokeColor=none;fillColor=none;align=center;verticalAlign=middle;whiteSpace=wrap;rounded=0;" parent="1" vertex="1">
          <mxGeometry x="-1465.37" y="1033.5" width="112" height="30" as="geometry" />
        </mxCell>
        <mxCell id="1lmrmKGu_N5sYzmFphA3-575" value="Нажата кнопка &quot;Переход к поиску&quot; и до этого не был совершен вход" style="text;html=1;strokeColor=none;fillColor=none;align=center;verticalAlign=middle;whiteSpace=wrap;rounded=0;" parent="1" vertex="1">
          <mxGeometry x="-1535.37" y="935.5" width="120" height="30" as="geometry" />
        </mxCell>
        <mxCell id="1lmrmKGu_N5sYzmFphA3-576" value="" style="ellipse;html=1;" parent="1" vertex="1">
          <mxGeometry x="-945.37" y="768.5" width="30" height="30" as="geometry" />
        </mxCell>
        <mxCell id="1lmrmKGu_N5sYzmFphA3-577" value="Нажата кнопка &quot;Вход в систему&quot;" style="text;html=1;strokeColor=none;fillColor=none;align=center;verticalAlign=middle;whiteSpace=wrap;rounded=0;" parent="1" vertex="1">
          <mxGeometry x="-1062.37" y="785.5" width="112" height="30" as="geometry" />
        </mxCell>
        <mxCell id="1lmrmKGu_N5sYzmFphA3-578" value="Вход в систему" style="text;html=1;strokeColor=none;fillColor=none;align=center;verticalAlign=middle;whiteSpace=wrap;rounded=0;" parent="1" vertex="1">
          <mxGeometry x="-915.62" y="768.5" width="92.5" height="30" as="geometry" />
        </mxCell>
        <mxCell id="1lmrmKGu_N5sYzmFphA3-583" value="" style="ellipse;html=1;" parent="1" vertex="1">
          <mxGeometry x="-1337.5" y="1224" width="30" height="30" as="geometry" />
        </mxCell>
        <mxCell id="1lmrmKGu_N5sYzmFphA3-584" value="Поиск (без входа в систему)" style="text;html=1;strokeColor=none;fillColor=none;align=center;verticalAlign=middle;whiteSpace=wrap;rounded=0;" parent="1" vertex="1">
          <mxGeometry x="-1307.5" y="1224" width="105" height="30" as="geometry" />
        </mxCell>
        <mxCell id="1lmrmKGu_N5sYzmFphA3-585" value="" style="endArrow=classic;html=1;rounded=0;entryX=0.25;entryY=0;entryDx=0;entryDy=0;" parent="1" source="1lmrmKGu_N5sYzmFphA3-583" target="1lmrmKGu_N5sYzmFphA3-5" edge="1">
          <mxGeometry width="50" height="50" relative="1" as="geometry">
            <mxPoint x="-1181.5" y="1079.5" as="sourcePoint" />
            <mxPoint x="-1238.5" y="1122" as="targetPoint" />
          </mxGeometry>
        </mxCell>
        <mxCell id="1lmrmKGu_N5sYzmFphA3-587" value="Нажата кнопка &quot;Переход к поиску&quot; и до этого не был совершен вход" style="text;html=1;strokeColor=none;fillColor=none;align=center;verticalAlign=middle;whiteSpace=wrap;rounded=0;" parent="1" vertex="1">
          <mxGeometry x="-1442.5" y="1282" width="120" height="30" as="geometry" />
        </mxCell>
        <mxCell id="1lmrmKGu_N5sYzmFphA3-588" value="Нажата кнопка &quot;Полное инфо&quot;" style="text;html=1;strokeColor=none;fillColor=none;align=center;verticalAlign=middle;whiteSpace=wrap;rounded=0;" parent="1" vertex="1">
          <mxGeometry x="-1428.5" y="1624" width="112" height="30" as="geometry" />
        </mxCell>
        <mxCell id="1lmrmKGu_N5sYzmFphA3-589" value="" style="ellipse;html=1;" parent="1" vertex="1">
          <mxGeometry x="-1599.5" y="1517" width="30" height="30" as="geometry" />
        </mxCell>
        <mxCell id="1lmrmKGu_N5sYzmFphA3-590" value="Просмотр информации о пользователе (без входа)" style="text;html=1;strokeColor=none;fillColor=none;align=center;verticalAlign=middle;whiteSpace=wrap;rounded=0;" parent="1" vertex="1">
          <mxGeometry x="-1760" y="1517" width="160.5" height="30" as="geometry" />
        </mxCell>
        <mxCell id="1lmrmKGu_N5sYzmFphA3-591" value="" style="ellipse;html=1;" parent="1" vertex="1">
          <mxGeometry x="-1337.5" y="1694" width="30" height="30" as="geometry" />
        </mxCell>
        <mxCell id="1lmrmKGu_N5sYzmFphA3-592" value="Просмотр информации о пользователе (без входа)" style="text;html=1;strokeColor=none;fillColor=none;align=center;verticalAlign=middle;whiteSpace=wrap;rounded=0;" parent="1" vertex="1">
          <mxGeometry x="-1402.75" y="1724" width="160.5" height="30" as="geometry" />
        </mxCell>
        <mxCell id="1lmrmKGu_N5sYzmFphA3-593" value="" style="ellipse;html=1;" parent="1" vertex="1">
          <mxGeometry x="-1460.25" y="1857.5" width="30" height="30" as="geometry" />
        </mxCell>
        <mxCell id="1lmrmKGu_N5sYzmFphA3-594" value="Просмотр информации о пользователе (без входа)" style="text;html=1;strokeColor=none;fillColor=none;align=center;verticalAlign=middle;whiteSpace=wrap;rounded=0;" parent="1" vertex="1">
          <mxGeometry x="-1525.5" y="1826.5" width="160.5" height="30" as="geometry" />
        </mxCell>
        <mxCell id="1lmrmKGu_N5sYzmFphA3-595" value="" style="endArrow=classic;html=1;rounded=0;entryX=0.25;entryY=0;entryDx=0;entryDy=0;" parent="1" source="1lmrmKGu_N5sYzmFphA3-593" target="1lmrmKGu_N5sYzmFphA3-107" edge="1">
          <mxGeometry width="50" height="50" relative="1" as="geometry">
            <mxPoint x="-1438" y="1846.5" as="sourcePoint" />
            <mxPoint x="-1438" y="1943.5" as="targetPoint" />
            <Array as="points" />
          </mxGeometry>
        </mxCell>
        <mxCell id="1lmrmKGu_N5sYzmFphA3-596" value="" style="ellipse;html=1;" parent="1" vertex="1">
          <mxGeometry x="-1462" y="2290.5" width="30" height="30" as="geometry" />
        </mxCell>
        <mxCell id="1lmrmKGu_N5sYzmFphA3-597" value="Просмотр информации о пользователе (без входа)" style="text;html=1;strokeColor=none;fillColor=none;align=center;verticalAlign=middle;whiteSpace=wrap;rounded=0;" parent="1" vertex="1">
          <mxGeometry x="-1622.5" y="2290.5" width="160.5" height="30" as="geometry" />
        </mxCell>
        <mxCell id="1lmrmKGu_N5sYzmFphA3-598" value="" style="endArrow=classic;html=1;rounded=0;edgeStyle=orthogonalEdgeStyle;exitX=0.25;exitY=1;exitDx=0;exitDy=0;" parent="1" source="1lmrmKGu_N5sYzmFphA3-107" target="1lmrmKGu_N5sYzmFphA3-596" edge="1">
          <mxGeometry width="50" height="50" relative="1" as="geometry">
            <mxPoint x="-1736.5" y="2206.5" as="sourcePoint" />
            <mxPoint x="-1604.5" y="2206.5" as="targetPoint" />
          </mxGeometry>
        </mxCell>
        <mxCell id="1lmrmKGu_N5sYzmFphA3-599" value="Нажата область вне окна информации" style="text;html=1;strokeColor=none;fillColor=none;align=center;verticalAlign=middle;whiteSpace=wrap;rounded=0;" parent="1" vertex="1">
          <mxGeometry x="-1554" y="2225.5" width="112" height="30" as="geometry" />
        </mxCell>
        <mxCell id="1lmrmKGu_N5sYzmFphA3-600" value="" style="ellipse;html=1;" parent="1" vertex="1">
          <mxGeometry x="-840" y="1387" width="30" height="30" as="geometry" />
        </mxCell>
        <mxCell id="1lmrmKGu_N5sYzmFphA3-601" value="Вход в систему" style="text;html=1;strokeColor=none;fillColor=none;align=center;verticalAlign=middle;whiteSpace=wrap;rounded=0;" parent="1" vertex="1">
          <mxGeometry x="-877.5" y="1417" width="105" height="30" as="geometry" />
        </mxCell>
        <mxCell id="1lmrmKGu_N5sYzmFphA3-602" value="" style="ellipse;html=1;" parent="1" vertex="1">
          <mxGeometry x="-2695.75" y="1828" width="30" height="30" as="geometry" />
        </mxCell>
        <mxCell id="1lmrmKGu_N5sYzmFphA3-603" value="Просмотр своего аккаунта" style="text;html=1;strokeColor=none;fillColor=none;align=center;verticalAlign=middle;whiteSpace=wrap;rounded=0;" parent="1" vertex="1">
          <mxGeometry x="-2675.75" y="1828" width="130" height="30" as="geometry" />
        </mxCell>
        <mxCell id="1lmrmKGu_N5sYzmFphA3-604" value="" style="ellipse;html=1;" parent="1" vertex="1">
          <mxGeometry x="-2288.5" y="1731" width="30" height="30" as="geometry" />
        </mxCell>
        <mxCell id="1lmrmKGu_N5sYzmFphA3-605" value="Редактирование своего аккаунта" style="text;html=1;strokeColor=none;fillColor=none;align=center;verticalAlign=middle;whiteSpace=wrap;rounded=0;" parent="1" vertex="1">
          <mxGeometry x="-2258.5" y="1731" width="105" height="30" as="geometry" />
        </mxCell>
        <mxCell id="1lmrmKGu_N5sYzmFphA3-606" value="" style="ellipse;html=1;" parent="1" vertex="1">
          <mxGeometry x="-2307.25" y="2273" width="30" height="30" as="geometry" />
        </mxCell>
        <mxCell id="1lmrmKGu_N5sYzmFphA3-607" value="Редактирование своего аккаунта" style="text;html=1;strokeColor=none;fillColor=none;align=center;verticalAlign=middle;whiteSpace=wrap;rounded=0;" parent="1" vertex="1">
          <mxGeometry x="-2277.25" y="2273" width="105" height="30" as="geometry" />
        </mxCell>
        <mxCell id="1lmrmKGu_N5sYzmFphA3-608" value="" style="endArrow=classic;html=1;rounded=0;entryX=0.9;entryY=1.002;entryDx=0;entryDy=0;entryPerimeter=0;" parent="1" source="1lmrmKGu_N5sYzmFphA3-606" edge="1">
          <mxGeometry width="50" height="50" relative="1" as="geometry">
            <mxPoint x="-2236.25" y="2152.5" as="sourcePoint" />
            <mxPoint x="-2293.25" y="2195" as="targetPoint" />
          </mxGeometry>
        </mxCell>
        <mxCell id="1lmrmKGu_N5sYzmFphA3-609" value="Нажата кнопка &quot;Редактирование аккаунта&quot;" style="text;html=1;strokeColor=none;fillColor=none;align=center;verticalAlign=middle;whiteSpace=wrap;rounded=0;" parent="1" vertex="1">
          <mxGeometry x="-2291.25" y="2224" width="112" height="30" as="geometry" />
        </mxCell>
        <mxCell id="1lmrmKGu_N5sYzmFphA3-610" value="" style="ellipse;html=1;" parent="1" vertex="1">
          <mxGeometry x="-300" y="1843.5" width="30" height="30" as="geometry" />
        </mxCell>
        <mxCell id="1lmrmKGu_N5sYzmFphA3-611" value="Просмотр своего аккаунта" style="text;html=1;strokeColor=none;fillColor=none;align=center;verticalAlign=middle;whiteSpace=wrap;rounded=0;" parent="1" vertex="1">
          <mxGeometry x="-280" y="1843.5" width="130" height="30" as="geometry" />
        </mxCell>
        <mxCell id="1lmrmKGu_N5sYzmFphA3-616" value="" style="ellipse;html=1;" parent="1" vertex="1">
          <mxGeometry x="-2733" y="1288" width="30" height="30" as="geometry" />
        </mxCell>
        <mxCell id="1lmrmKGu_N5sYzmFphA3-617" value="Просмотр своего аккаунта" style="text;html=1;strokeColor=none;fillColor=none;align=center;verticalAlign=middle;whiteSpace=wrap;rounded=0;" parent="1" vertex="1">
          <mxGeometry x="-2861" y="1288" width="130" height="30" as="geometry" />
        </mxCell>
        <mxCell id="1lmrmKGu_N5sYzmFphA3-618" value="" style="endArrow=classic;html=1;rounded=0;entryX=0.25;entryY=0;entryDx=0;entryDy=0;edgeStyle=orthogonalEdgeStyle;" parent="1" source="1lmrmKGu_N5sYzmFphA3-616" target="1lmrmKGu_N5sYzmFphA3-117" edge="1">
          <mxGeometry width="50" height="50" relative="1" as="geometry">
            <mxPoint x="-2602.5" y="1211.5" as="sourcePoint" />
            <mxPoint x="-2879.5" y="1361" as="targetPoint" />
          </mxGeometry>
        </mxCell>
        <mxCell id="1lmrmKGu_N5sYzmFphA3-619" value="Нажата &quot;Завершить регистрацию&quot;" style="text;html=1;strokeColor=none;fillColor=none;align=center;verticalAlign=middle;whiteSpace=wrap;rounded=0;" parent="1" vertex="1">
          <mxGeometry x="-2669" y="1303" width="130" height="30" as="geometry" />
        </mxCell>
      </root>
    </mxGraphModel>
  </diagram>
</mxfile>
